<svg width="262" height="199" viewBox="0 0 262 199" fill="none" xmlns="http://www.w3.org/2000/svg">
<path d="M132.6 88.1064C131.726 87.7797 131.078 87.604 130.696 87.604C130.661 87.604 130.628 87.6057 130.598 87.6075C130.685 87.5916 130.785 87.5829 130.896 87.5829C131.331 87.5829 131.928 87.7199 132.6 88.1064ZM130.42 87.6549C130.42 87.6549 130.47 87.6338 130.564 87.6127C130.575 87.611 130.586 87.6092 130.598 87.6075C130.532 87.6198 130.472 87.6356 130.42 87.6549Z" fill="url(#paint0_linear)"/>
<path d="M130.42 87.6548C130.459 87.6337 130.508 87.6196 130.565 87.6126C130.47 87.6337 130.42 87.6548 130.42 87.6548Z" fill="#EDEDEB"/>
<path d="M196.25 198.725C194.119 198.725 192.151 198.512 190.396 198.054L204.921 189.787L214.492 195.233C207.891 197.402 201.564 198.725 196.25 198.725ZM188.691 197.505C188.104 197.276 187.545 197.014 187.022 196.717L166.399 184.979L168.293 183.902C169.248 184.693 170.244 185.391 171.265 185.972C173.402 187.187 175.422 187.765 177.213 187.765C178.52 187.765 179.704 187.457 180.723 186.867L187.985 182.706C188.664 182.316 189.27 181.803 189.787 181.173L203.59 189.028L188.691 197.505V197.505ZM216.167 194.668L206.256 189.028L230.391 175.291L242.403 182.125C234.501 186.974 225.14 191.552 216.167 194.668ZM204.921 188.27L190.532 180.079C191.37 178.589 191.844 176.652 191.852 174.327C191.855 173.277 191.761 172.194 191.581 171.1C194.11 172.42 196.947 173.151 199.903 173.151C200.454 173.151 201.005 173.127 201.561 173.075C207.028 172.573 213.626 171.58 220.57 169.7L229.059 174.532L204.921 188.27ZM165.065 184.221L140.247 170.093L151.29 163.809L155.29 166.09C155.292 166.098 155.298 166.109 155.301 166.118L155.32 166.107L155.378 166.139V166.071L158.085 164.44C158.431 170.909 162.168 178.256 167.246 182.979L165.065 184.221V184.221ZM243.676 181.334L231.725 174.532L254.559 161.536L261.439 165.452C259.483 169.793 252.619 175.703 243.676 181.334V181.334ZM230.391 173.774L222.356 169.201C230.687 166.778 239.405 163.048 247.185 157.34L253.225 160.778L230.391 173.774ZM138.915 169.334L116.762 156.726L127.825 150.429L149.959 163.051L138.915 169.334V169.334ZM261.877 164.186L255.89 160.778L258.497 159.294L260.119 160.216C261.749 161.144 262.267 162.511 261.877 164.186V164.186ZM254.559 160.02L248.337 156.478C249.065 155.916 249.787 155.337 250.498 154.74L257.166 158.535L254.559 160.02ZM115.428 155.968L90.6122 141.843L101.7 135.532L126.494 149.67L115.428 155.968V155.968ZM89.2781 141.084L67.1276 128.479L76.7539 123L78.2374 122.154L100.369 134.773L89.2781 141.084V141.084ZM65.7963 127.72L40.9748 113.592L49.5217 108.728C51.7387 114.725 56.1284 120.441 61.1907 123.322C63.3274 124.539 65.3479 125.115 67.1359 125.115C68.4589 125.115 69.6573 124.801 70.6842 124.198C70.662 124.209 70.6399 124.222 70.6205 124.233L77.8665 120.083L77.861 120.853L65.7963 127.72V127.72ZM39.6408 112.834L36.6903 111.153C35.6579 110.567 35.6579 109.099 36.6903 108.512L43.9253 104.395C44.1412 104.539 44.3681 104.676 44.6034 104.812C44.6145 104.85 44.6255 104.886 44.6366 104.921L48.1074 102.965C48.2762 104.444 48.6084 105.953 49.0844 107.459L39.6408 112.834Z" fill="#4C4A8B"/>
<path d="M40.9786 113.593L39.6445 112.835L49.0882 107.46C49.2238 107.883 49.3677 108.306 49.5255 108.729L40.9786 113.593" fill="#23769A"/>
<path d="M67.1282 128.48L65.7969 127.721L77.8616 120.854L77.8561 121.937L78.0692 122.06C77.6263 122.376 77.1973 122.682 76.7545 123.001L67.1282 128.48" fill="#23779A"/>
<path d="M190.398 198.055C189.803 197.899 189.236 197.719 188.693 197.506L203.592 189.029L189.789 181.174C190.063 180.841 190.312 180.475 190.534 180.08L204.923 188.271L229.061 174.533L220.572 169.701C221.165 169.54 221.76 169.373 222.358 169.201L230.392 173.774L253.227 160.779L247.187 157.341C247.575 157.057 247.957 156.771 248.339 156.479L254.561 160.02L257.168 158.536L258.499 159.294L255.892 160.779L261.879 164.187C261.785 164.59 261.638 165.013 261.441 165.453L254.561 161.537L231.727 174.533L243.678 181.335C243.257 181.599 242.834 181.864 242.405 182.126L230.392 175.291L206.257 189.029L216.169 194.669C215.61 194.862 215.051 195.051 214.494 195.233L204.923 189.788L190.398 198.055V198.055ZM166.401 184.98L165.067 184.222L167.248 182.98C167.592 183.299 167.94 183.608 168.295 183.902L166.401 184.98V184.98ZM140.249 170.094L138.917 169.335L149.961 163.052L151.292 163.81L140.249 170.094ZM116.764 156.727L115.43 155.969L126.496 149.671L127.827 150.43L116.764 156.727ZM90.6141 141.843L89.2801 141.085L100.371 134.774L101.702 135.533L90.6141 141.843ZM76.7559 123.001C77.1987 122.682 77.6277 122.376 78.0706 122.059L78.2394 122.155L76.7559 123.001Z" fill="#4C4A8B"/>
<path d="M184.217 181.684V181.681V181.684ZM184.27 181.444L184.272 181.441L184.27 181.444ZM184.278 181.406C184.281 181.4 184.281 181.395 184.281 181.392C184.281 181.395 184.281 181.4 184.278 181.406ZM184.295 181.324C184.295 181.321 184.297 181.318 184.297 181.318C184.297 181.318 184.295 181.321 184.295 181.324ZM184.303 181.286C184.303 181.28 184.306 181.275 184.306 181.269C184.306 181.275 184.303 181.28 184.303 181.286ZM184.311 181.237C184.314 181.231 184.314 181.223 184.317 181.218C184.314 181.223 184.314 181.231 184.311 181.237ZM184.325 181.168C184.328 181.16 184.328 181.152 184.33 181.147C184.328 181.152 184.328 181.16 184.325 181.168ZM184.333 181.119C184.336 181.108 184.339 181.1 184.339 181.092C184.339 181.1 184.336 181.108 184.333 181.119ZM184.347 181.051C184.347 181.04 184.35 181.032 184.353 181.021C184.35 181.032 184.347 181.04 184.347 181.051ZM184.355 180.997C184.358 180.988 184.358 180.977 184.361 180.969C184.358 180.977 184.358 180.988 184.355 180.997ZM184.364 180.945C184.366 180.931 184.369 180.915 184.372 180.898C184.369 180.915 184.366 180.931 184.364 180.945ZM184.375 180.876C184.378 180.866 184.38 180.855 184.38 180.844C184.38 180.855 184.378 180.866 184.375 180.876ZM184.386 180.822C184.389 180.808 184.391 180.789 184.391 180.773C184.389 180.789 184.389 180.806 184.386 180.822ZM184.394 180.759C184.397 180.746 184.4 180.732 184.4 180.718C184.4 180.732 184.397 180.746 184.394 180.759ZM184.402 180.702C184.405 180.686 184.408 180.669 184.411 180.653C184.408 180.669 184.405 180.686 184.402 180.702ZM184.411 180.647C184.414 180.631 184.416 180.612 184.419 180.595C184.416 180.612 184.414 180.631 184.411 180.647ZM184.422 180.579C184.425 180.563 184.425 180.549 184.427 180.535C184.425 180.549 184.425 180.563 184.422 180.579ZM184.43 180.524C184.43 180.505 184.433 180.486 184.436 180.467C184.433 180.486 184.43 180.505 184.43 180.524ZM184.438 180.456C184.438 180.44 184.441 180.426 184.444 180.41C184.441 180.426 184.438 180.44 184.438 180.456ZM184.444 180.399C184.447 180.38 184.45 180.361 184.452 180.342C184.45 180.361 184.447 180.38 184.444 180.399ZM184.452 180.339C184.455 180.32 184.458 180.301 184.461 180.282C184.458 180.301 184.455 180.32 184.452 180.339ZM184.461 180.274C184.466 180.235 184.469 180.194 184.474 180.156C184.469 180.194 184.466 180.235 184.461 180.274ZM184.474 180.148C184.477 180.129 184.477 180.112 184.48 180.093C184.477 180.11 184.477 180.129 184.474 180.148ZM184.48 180.088C184.483 180.066 184.485 180.047 184.488 180.025C184.485 180.047 184.483 180.066 184.48 180.088ZM184.488 180.025C184.488 180.006 184.491 179.984 184.494 179.965C184.491 179.984 184.488 180.006 184.488 180.025ZM184.494 179.96C184.497 179.919 184.502 179.878 184.505 179.837C184.502 179.878 184.497 179.919 184.494 179.96ZM184.505 179.831C184.508 179.791 184.513 179.75 184.516 179.706C184.513 179.75 184.508 179.791 184.505 179.831ZM184.516 179.703C184.521 179.64 184.524 179.575 184.53 179.512C184.524 179.575 184.521 179.64 184.516 179.703ZM184.53 179.51C184.533 179.469 184.535 179.425 184.538 179.381C184.535 179.425 184.533 179.466 184.53 179.51ZM184.538 179.376C184.541 179.335 184.541 179.291 184.544 179.248C184.541 179.291 184.541 179.335 184.538 179.376ZM184.544 179.248C184.546 179.226 184.546 179.204 184.546 179.182C184.546 179.204 184.546 179.226 184.544 179.248ZM184.546 179.179C184.549 179.138 184.552 179.095 184.552 179.051C184.552 179.095 184.549 179.138 184.546 179.179ZM184.552 179.043C184.555 179.002 184.555 178.958 184.557 178.917C184.555 178.958 184.555 179.002 184.552 179.043ZM184.557 178.909C184.557 178.866 184.557 178.822 184.56 178.781C184.557 178.822 184.557 178.866 184.557 178.909ZM184.56 178.773C184.56 178.754 184.56 178.735 184.56 178.716C184.56 178.735 184.56 178.754 184.56 178.773ZM184.56 178.707C184.56 178.686 184.56 178.664 184.56 178.642C184.56 178.664 184.56 178.686 184.56 178.707ZM184.563 178.636C184.563 178.617 184.563 178.598 184.563 178.579C184.563 178.598 184.563 178.617 184.563 178.636ZM184.563 178.568C184.563 178.546 184.563 178.525 184.563 178.505C184.563 178.525 184.563 178.546 184.563 178.568ZM184.563 178.435C184.563 178.432 184.563 178.429 184.563 178.426C184.563 178.429 184.563 178.432 184.563 178.435ZM172.983 157.005C172.983 157.003 172.983 157.003 172.983 157.003C172.983 157.003 172.983 157.003 172.983 157.005ZM172.938 156.973C172.936 156.97 172.936 156.97 172.936 156.97C172.936 156.97 172.936 156.97 172.938 156.973ZM172.891 156.94C172.891 156.937 172.889 156.937 172.889 156.937C172.889 156.937 172.891 156.937 172.891 156.94ZM172.844 156.904H172.841H172.844ZM172.747 156.839C172.747 156.839 172.747 156.839 172.745 156.839C172.747 156.839 172.747 156.839 172.747 156.839ZM172.703 156.809C172.698 156.806 172.695 156.803 172.689 156.801C172.695 156.803 172.698 156.806 172.703 156.809ZM172.659 156.779C172.653 156.773 172.648 156.771 172.642 156.768C172.648 156.771 172.653 156.773 172.659 156.779ZM172.615 156.749C172.606 156.743 172.601 156.738 172.595 156.735C172.601 156.741 172.606 156.743 172.615 156.749ZM172.57 156.719C172.562 156.713 172.556 156.708 172.548 156.705C172.556 156.708 172.562 156.713 172.57 156.719ZM172.523 156.686C172.518 156.683 172.509 156.678 172.504 156.675C172.509 156.678 172.518 156.683 172.523 156.686ZM172.479 156.659C172.473 156.653 172.465 156.648 172.46 156.642C172.465 156.648 172.473 156.653 172.479 156.659ZM172.437 156.629C172.421 156.621 172.407 156.61 172.39 156.599C172.407 156.61 172.421 156.621 172.437 156.629ZM172.371 156.585C172.363 156.58 172.354 156.574 172.343 156.569C172.354 156.574 172.363 156.58 172.371 156.585ZM172.327 156.558C172.318 156.552 172.307 156.544 172.299 156.539C172.31 156.544 172.318 156.552 172.327 156.558ZM172.282 156.528C172.274 156.522 172.266 156.517 172.255 156.512C172.266 156.517 172.274 156.522 172.282 156.528ZM172.238 156.501C172.23 156.495 172.219 156.487 172.21 156.482C172.219 156.487 172.23 156.495 172.238 156.501ZM172.197 156.473C172.186 156.465 172.174 156.46 172.166 156.454C172.174 156.46 172.186 156.465 172.197 156.473ZM172.152 156.446C172.141 156.438 172.133 156.432 172.122 156.424C172.13 156.432 172.144 156.438 172.152 156.446ZM172.116 156.421C172.078 156.397 172.039 156.372 172 156.351C172.039 156.372 172.078 156.397 172.116 156.421ZM171.992 156.342C171.981 156.337 171.972 156.331 171.961 156.326C171.972 156.331 171.981 156.337 171.992 156.342ZM171.947 156.315C171.936 156.31 171.928 156.304 171.917 156.299C171.928 156.304 171.936 156.31 171.947 156.315ZM171.9 156.288C171.892 156.282 171.881 156.277 171.873 156.269C171.881 156.277 171.892 156.282 171.9 156.288ZM171.856 156.261C171.848 156.255 171.837 156.25 171.828 156.241C171.837 156.25 171.848 156.255 171.856 156.261ZM171.812 156.233C171.804 156.228 171.792 156.222 171.781 156.214C171.792 156.222 171.804 156.228 171.812 156.233ZM171.77 156.209C171.734 156.187 171.698 156.165 171.662 156.143C171.698 156.165 171.734 156.187 171.77 156.209ZM171.651 156.138C171.643 156.132 171.632 156.127 171.624 156.121C171.632 156.127 171.643 156.132 171.651 156.138ZM171.607 156.11C171.596 156.105 171.588 156.1 171.579 156.094C171.588 156.1 171.596 156.105 171.607 156.11ZM171.56 156.083C171.552 156.078 171.543 156.072 171.535 156.07C171.543 156.072 171.552 156.078 171.56 156.083ZM171.513 156.056C171.505 156.05 171.499 156.048 171.491 156.042C171.499 156.048 171.505 156.05 171.513 156.056ZM171.466 156.029C171.458 156.023 171.452 156.02 171.444 156.015C171.452 156.02 171.458 156.023 171.466 156.029ZM171.416 155.999C171.411 155.996 171.405 155.993 171.399 155.99C171.405 155.993 171.411 155.996 171.416 155.999ZM70.6855 124.199C70.6994 124.19 70.7105 124.182 70.7243 124.174C70.7105 124.182 70.6966 124.19 70.6855 124.199ZM70.7243 124.174C70.7381 124.166 70.7492 124.158 70.7631 124.152C70.7492 124.158 70.7381 124.166 70.7243 124.174ZM70.7686 124.147C70.7769 124.141 70.788 124.136 70.7963 124.13C70.788 124.136 70.7769 124.141 70.7686 124.147ZM70.8073 124.125C70.8184 124.117 70.8267 124.111 70.8378 124.103C70.8295 124.111 70.8184 124.117 70.8073 124.125ZM70.8461 124.1C70.8544 124.095 70.8654 124.087 70.8737 124.081C70.8654 124.087 70.8544 124.095 70.8461 124.1ZM70.8876 124.073C70.8959 124.068 70.9014 124.065 70.9069 124.059C70.9014 124.065 70.8959 124.068 70.8876 124.073ZM70.9263 124.049C70.9346 124.043 70.9429 124.038 70.9512 124.032C70.9429 124.038 70.9346 124.043 70.9263 124.049ZM70.9706 124.019C70.9734 124.016 70.9789 124.013 70.9817 124.01C70.9789 124.013 70.9734 124.016 70.9706 124.019ZM71.0038 123.997C71.0038 123.997 71.0066 123.997 71.0066 123.994C71.0066 123.997 71.0038 123.997 71.0038 123.997ZM71.0536 123.964C71.0536 123.964 71.0564 123.961 71.0592 123.961C71.0564 123.961 71.0536 123.964 71.0536 123.964ZM74.4414 117.031C74.4414 117.028 74.4414 117.026 74.4414 117.023C74.4414 117.026 74.4414 117.028 74.4414 117.031ZM74.4525 116.897C74.4525 116.892 74.4525 116.889 74.4525 116.884C74.4525 116.889 74.4525 116.892 74.4525 116.897ZM74.4553 116.845C74.4553 116.843 74.4553 116.837 74.4553 116.835C74.4553 116.837 74.4553 116.843 74.4553 116.845ZM74.458 116.769C74.4608 116.761 74.4608 116.753 74.4608 116.745C74.4608 116.753 74.4608 116.761 74.458 116.769ZM74.4636 116.715C74.4636 116.706 74.4636 116.698 74.4636 116.69C74.4636 116.698 74.4636 116.706 74.4636 116.715ZM74.4663 116.641C74.4663 116.63 74.4663 116.619 74.4691 116.608C74.4663 116.619 74.4663 116.63 74.4663 116.641ZM74.4691 116.581C74.4691 116.57 74.4691 116.562 74.4691 116.551C74.4691 116.562 74.4691 116.57 74.4691 116.581ZM74.4718 116.523C74.4718 116.507 74.4719 116.488 74.4746 116.472C74.4719 116.488 74.4718 116.507 74.4718 116.523ZM74.4746 116.447C74.4746 116.436 74.4746 116.425 74.4746 116.414C74.4746 116.425 74.4746 116.436 74.4746 116.447ZM74.4774 116.387C74.4774 116.373 74.4774 116.363 74.4774 116.349C74.4774 116.363 74.4774 116.373 74.4774 116.387ZM74.4802 116.313C74.4802 116.302 74.4802 116.289 74.4802 116.275C74.4802 116.289 74.4802 116.302 74.4802 116.313ZM74.4802 116.251C74.4802 116.237 74.4829 116.223 74.4829 116.21C74.4829 116.223 74.4802 116.237 74.4802 116.251ZM74.4829 116.193C74.4829 116.174 74.4829 116.155 74.4829 116.136C74.4829 116.155 74.4829 116.174 74.4829 116.193ZM74.4829 116.114C74.4857 116.101 74.4857 116.087 74.4857 116.073C74.4857 116.087 74.4857 116.101 74.4829 116.114ZM74.4857 116.054C74.4857 116.035 74.4857 116.016 74.4857 115.997C74.4857 116.016 74.4857 116.035 74.4857 116.054ZM74.4857 115.981C74.4857 115.964 74.4857 115.951 74.4857 115.934C74.4857 115.951 74.4857 115.964 74.4857 115.981ZM74.4857 115.915C74.4857 115.896 74.4857 115.877 74.4857 115.855C74.4857 115.877 74.4857 115.896 74.4857 115.915ZM74.4857 115.79C74.4857 115.784 74.4857 115.779 74.4857 115.776C74.4857 115.779 74.4857 115.784 74.4857 115.79ZM74.4857 115.639C74.4857 115.637 74.4857 115.634 74.4857 115.629C74.4857 115.634 74.4857 115.637 74.4857 115.639Z" fill="#4C4A8B"/>
<path d="M69.5974 101.392C69.5974 101.389 69.5974 101.389 69.5974 101.389C69.5974 101.389 69.5974 101.389 69.5974 101.392ZM69.5586 101.335C69.5586 101.332 69.5559 101.327 69.5531 101.324C69.5559 101.327 69.5586 101.329 69.5586 101.335ZM69.4756 101.209C69.4729 101.207 69.4701 101.201 69.4673 101.196C69.4701 101.201 69.4729 101.207 69.4756 101.209ZM69.4369 101.152C69.4341 101.147 69.4286 101.141 69.4258 101.138C69.4286 101.144 69.4341 101.147 69.4369 101.152ZM69.3926 101.087C69.3898 101.087 69.3898 101.084 69.387 101.081C69.3898 101.084 69.3898 101.087 69.3926 101.087ZM69.3511 101.029C69.3455 101.021 69.3428 101.016 69.3372 101.01C69.3428 101.016 69.3455 101.021 69.3511 101.029ZM69.3123 100.972C69.3068 100.966 69.304 100.958 69.2985 100.953C69.304 100.958 69.3068 100.966 69.3123 100.972ZM69.2708 100.912C69.2653 100.904 69.2597 100.896 69.2542 100.887C69.2597 100.896 69.2653 100.904 69.2708 100.912ZM69.2238 100.846C69.2182 100.838 69.2154 100.833 69.2099 100.825C69.2154 100.833 69.2182 100.838 69.2238 100.846ZM69.1878 100.792C69.1822 100.784 69.174 100.775 69.1712 100.77C69.1767 100.778 69.1822 100.784 69.1878 100.792ZM69.1407 100.726C69.1352 100.718 69.1269 100.71 69.1213 100.699C69.1269 100.71 69.1352 100.718 69.1407 100.726ZM69.0964 100.666C69.0909 100.658 69.0854 100.65 69.0798 100.642C69.0854 100.65 69.0909 100.658 69.0964 100.666ZM69.0605 100.615C69.0522 100.604 69.0466 100.595 69.0411 100.587C69.0466 100.595 69.0522 100.604 69.0605 100.615ZM69.0217 100.56C69.0079 100.544 68.9968 100.527 68.9857 100.511C68.9968 100.527 69.0079 100.544 69.0217 100.56ZM68.9691 100.489C68.9636 100.478 68.9553 100.467 68.947 100.459C68.9553 100.47 68.9636 100.478 68.9691 100.489ZM68.9304 100.434C68.9248 100.426 68.9165 100.415 68.911 100.407C68.9165 100.415 68.9248 100.426 68.9304 100.434ZM68.8806 100.369C68.875 100.358 68.8667 100.347 68.8584 100.336C68.8667 100.347 68.875 100.358 68.8806 100.369ZM68.839 100.309C68.8307 100.298 68.8252 100.29 68.8169 100.282C68.8252 100.29 68.8307 100.298 68.839 100.309ZM68.8003 100.254C68.792 100.246 68.7865 100.238 68.7781 100.227C68.7865 100.238 68.792 100.246 68.8003 100.254ZM68.7449 100.181C68.7394 100.172 68.7338 100.167 68.7255 100.156C68.7338 100.164 68.7394 100.172 68.7449 100.181ZM68.7062 100.129C68.7006 100.121 68.6924 100.112 68.6868 100.104C68.6924 100.112 68.7006 100.121 68.7062 100.129ZM68.6619 100.072C68.6564 100.066 68.6536 100.058 68.6481 100.052C68.6536 100.058 68.6564 100.066 68.6619 100.072ZM68.6121 100.003C68.6066 99.9979 68.601 99.9897 68.5955 99.9842C68.601 99.9897 68.6066 99.9979 68.6121 100.003ZM68.5706 99.9487C68.565 99.9433 68.5595 99.9379 68.5567 99.9297C68.5595 99.9379 68.565 99.9433 68.5706 99.9487ZM68.5263 99.8914C68.5207 99.886 68.518 99.8805 68.5152 99.8778C68.518 99.8805 68.5207 99.886 68.5263 99.8914ZM68.4737 99.8232C68.4709 99.8205 68.4709 99.8178 68.4682 99.815C68.4709 99.8178 68.4737 99.8205 68.4737 99.8232ZM68.4322 99.7687C68.4294 99.766 68.4266 99.7605 68.4239 99.7578C68.4266 99.7605 68.4294 99.766 68.4322 99.7687ZM68.3381 99.6459H68.3353C68.3381 99.6459 68.3381 99.6459 68.3381 99.6459ZM68.2938 99.5886C68.291 99.5886 68.291 99.5859 68.291 99.5859C68.291 99.5859 68.291 99.5886 68.2938 99.5886Z" fill="#4C4A8B"/>
<path d="M61.6002 79.2178L43.5321 87.8997C40.9443 89.3812 43.0976 100.082 44.6365 104.922L75.0405 87.7796C71.3178 84.4591 66.6624 81.7961 61.6002 79.2178Z" fill="#191919"/>
<path d="M172.734 143.966C171.848 143.167 170.968 142.356 170.11 141.527L156.656 148.768C153.999 150.291 153.609 161.873 155.3 166.118L169.022 157.846L178.228 150.438C176.393 148.269 174.591 146.083 172.734 143.966Z" fill="#191919"/>
<path d="M79.4875 101.894C78.1977 99.0182 76.4319 96.2679 74.3588 93.9432C72.6124 91.9815 70.6472 90.3226 68.5686 89.1385C64.8847 87.0403 61.5468 86.8466 59.1361 88.2272L51.8457 92.4044C54.2564 91.0238 57.5944 91.2176 61.2783 93.3158C63.3569 94.4972 65.322 96.1588 67.0685 98.1205C69.1415 100.445 70.9074 103.195 72.1972 106.068C73.6503 109.313 74.4972 112.715 74.4861 115.855C74.4751 119.975 72.9999 122.873 70.6223 124.234L77.9127 120.057C80.2902 118.696 81.7654 115.798 81.7765 111.678C81.7848 108.538 80.9406 105.135 79.4875 101.894Z" fill="#191919"/>
<path d="M61.2761 93.3151C53.9581 89.1488 48.0046 92.4911 47.9825 100.769C47.9576 109.061 53.8696 119.159 61.1903 123.322C68.5083 127.489 74.4618 124.146 74.484 115.855C74.5089 107.577 68.5941 97.4787 61.2761 93.3151Z" fill="#262626"/>
<path d="M65.4655 120.371C64.1813 120.371 62.731 119.959 61.1976 119.086C55.9471 116.098 51.7041 108.851 51.7208 102.903C51.7318 98.6959 53.8768 96.2676 56.9933 96.2676C58.2776 96.2676 59.7279 96.6796 61.2613 97.5527C66.5118 100.543 70.7548 107.787 70.7381 113.727C70.7271 117.94 68.582 120.371 65.4655 120.371Z" fill="#242423"/>
<path d="M56.9512 96.9717L57.3249 96.9498L59.7328 97.2172C59.7328 97.2172 60.2532 97.2882 59.8906 97.3837C58.158 97.8448 57.0121 99.5145 56.954 102.128C56.8544 106.573 59.9432 112.057 63.8541 114.382C66.226 115.79 68.3545 115.713 69.683 114.439C69.9487 114.185 69.517 115.053 69.517 115.053L68.7309 116.434C67.3276 118.897 64.3716 119.432 61.0033 117.429C56.3755 114.679 52.7165 108.183 52.8328 102.922C52.9158 99.179 54.153 96.8843 56.9512 96.9717" fill="#AFAEA5"/>
<path d="M61.425 98.377C56.7945 95.6267 52.95 97.6622 52.831 102.923C52.7148 108.183 56.3738 114.679 61.0015 117.43C65.632 120.18 69.4792 118.145 69.5954 112.884C69.7117 107.624 66.0527 101.13 61.425 98.377ZM61.4388 97.7876C66.3544 100.71 70.2376 107.607 70.113 113.192C69.9912 118.78 65.906 120.941 60.9904 118.019C56.0749 115.097 52.1889 108.202 52.3135 102.614C52.438 97.0291 56.5232 94.8682 61.4388 97.7876Z" fill="#CAC9BF"/>
<path d="M63.4373 98.2218C67.6305 100.776 70.8965 106.737 70.7332 111.531C70.5726 116.328 67.0437 118.145 62.8505 115.588C58.6601 113.032 55.3914 107.073 55.5547 102.276C55.7152 97.4796 59.2469 95.6653 63.4373 98.2218Z" fill="#939289"/>
<path d="M62.6531 100.898C65.7365 102.778 68.1389 107.163 68.0199 110.693C67.9009 114.221 65.3047 115.558 62.2214 113.675C59.1353 111.796 56.7329 107.411 56.8519 103.883C56.9709 100.353 59.5671 99.0183 62.6531 100.898Z" fill="#CAC9BF"/>
<path d="M56.8665 103.206C56.9883 99.5446 59.316 97.9675 62.272 99.1544C62.6346 99.3018 63.0082 99.49 63.3902 99.722C65.3636 100.925 67.0879 103.042 68.184 105.373C69.0115 107.135 69.482 109.023 69.4239 110.731C69.2883 114.698 66.3711 116.199 62.9031 114.084L62.2249 113.675C65.3082 115.558 67.9044 114.221 68.0234 110.693C68.076 109.173 67.6581 107.493 66.9219 105.924C65.9449 103.85 64.4115 101.967 62.6567 100.898C62.3163 100.69 61.9842 100.524 61.6603 100.393C59.0309 99.3372 56.9606 100.74 56.8555 103.883L56.8665 103.206Z" fill="#AFAEA5"/>
<path d="M189.561 164.542C188.274 161.666 186.505 158.918 184.432 156.591C182.686 154.632 180.721 152.97 178.642 151.786C174.958 149.691 171.62 149.497 169.209 150.878L161.922 155.052C164.33 153.672 167.668 153.865 171.352 155.963C173.43 157.147 175.395 158.806 177.142 160.768C179.215 163.096 180.984 165.843 182.271 168.719C183.724 171.96 184.571 175.363 184.562 178.506C184.551 182.623 183.076 185.521 180.696 186.885L187.986 182.708C190.364 181.343 191.839 178.446 191.853 174.328C191.861 171.188 191.014 167.783 189.561 164.542" fill="#191919"/>
<path d="M171.352 155.963C164.034 151.796 158.084 155.142 158.059 163.42C158.034 171.711 163.948 181.807 171.267 185.973C178.587 190.139 184.538 186.794 184.563 178.505C184.585 170.224 178.673 160.129 171.352 155.963Z" fill="#262626"/>
<path d="M175.544 183.021C174.259 183.021 172.812 182.606 171.279 181.733C166.025 178.745 161.782 171.502 161.799 165.551C161.813 161.346 163.955 158.915 167.072 158.915C168.356 158.915 169.806 159.33 171.339 160.2C176.593 163.191 180.836 170.435 180.816 176.374C180.805 180.587 178.66 183.021 175.544 183.021" fill="#242423"/>
<path d="M167.025 159.62L167.401 159.598L169.806 159.865C169.806 159.865 170.329 159.936 169.964 160.035C168.234 160.493 167.086 162.165 167.027 164.779C166.928 169.221 170.019 174.708 173.927 177.03C176.299 178.44 178.428 178.361 179.759 177.09C180.022 176.836 179.593 177.701 179.593 177.701L178.807 179.082C177.401 181.548 174.448 182.08 171.079 180.078C166.449 177.327 162.793 170.834 162.909 165.573C162.992 161.827 164.226 159.535 167.025 159.62" fill="#AFAEA5"/>
<path d="M171.503 161.028C166.875 158.277 163.028 160.31 162.912 165.573C162.796 170.834 166.452 177.327 171.082 180.078C175.71 182.831 179.557 180.795 179.673 175.535C179.792 170.272 176.133 163.778 171.503 161.028V161.028ZM171.517 160.438C176.432 163.358 180.316 170.255 180.194 175.843C180.069 181.428 175.984 183.589 171.068 180.67C166.153 177.747 162.27 170.85 162.391 165.262C162.516 159.677 166.601 157.516 171.517 160.438" fill="#CAC9BF"/>
<path d="M173.511 160.868C177.705 163.425 180.97 169.384 180.81 174.18C180.647 178.974 177.118 180.791 172.925 178.235C168.734 175.681 165.468 169.719 165.629 164.925C165.792 160.129 169.321 158.312 173.511 160.868Z" fill="#939289"/>
<path d="M172.731 163.544C175.815 165.427 178.22 169.811 178.101 173.339C177.982 176.867 175.383 178.204 172.299 176.324C169.216 174.444 166.811 170.057 166.93 166.529C167.049 163.001 169.648 161.664 172.731 163.544Z" fill="#CAC9BF"/>
<path d="M166.944 165.853C167.065 162.194 169.39 160.617 172.346 161.804C172.712 161.951 173.085 162.139 173.464 162.371C175.438 163.574 177.162 165.689 178.258 168.019C179.089 169.784 179.556 171.67 179.498 173.378C179.365 177.345 176.445 178.846 172.98 176.734L172.299 176.324C175.382 178.204 177.981 176.867 178.1 173.339C178.15 171.82 177.735 170.142 176.996 168.573C176.022 166.499 174.486 164.617 172.731 163.544C172.393 163.34 172.058 163.171 171.735 163.042C169.105 161.984 167.038 163.389 166.93 166.529L166.944 165.853" fill="#AFAEA5"/>
<path d="M199.904 173.152C196.948 173.152 194.111 172.421 191.581 171.101C188.318 169.395 185.566 166.705 183.731 163.327C180.355 157.115 175.68 153.284 171.329 150.643L170.814 150.34C170.767 150.313 170.723 150.288 170.679 150.264C168.304 148.937 166.051 148.304 164.039 148.304C159.162 148.304 155.699 152.01 155.378 158.522V166.072V166.14L155.32 166.107L155.29 166.091L151.29 163.81L149.959 163.052L127.825 150.43L126.494 149.671L101.7 135.533L100.369 134.774L78.2375 122.155L78.0687 122.06L77.8556 121.937L77.8611 120.854L77.8667 120.084L77.8971 114.352C77.4875 105.962 72.3283 96.284 65.4864 90.8899C65.575 86.328 65.7493 80.9339 66.0289 75.406L84.9328 82.3909L66.2309 71.7472C66.2614 71.2261 66.2946 70.7077 66.3278 70.1893L66.5188 70.2984L66.826 70.1401L67.0419 67.0297L67.2163 66.9533L68.1241 67.4691L69.2478 71.5207L69.4084 71.8782L69.7543 72.1401L70.8504 72.7649C70.9251 72.8059 70.9832 72.8277 71.0275 72.8277C71.1244 72.8277 71.1521 72.7267 71.1078 72.5303L69.8927 68.3203C69.9093 68.3203 69.9259 68.3203 69.9425 68.3203C70.7452 68.3203 71.1825 67.7882 71.26 66.6668L71.343 65.4827C71.3984 64.6942 71.2434 63.9685 70.8753 63.3082C70.5071 62.6479 69.973 62.1158 69.2672 61.7148L67.0862 60.4733C68.0494 50.3808 69.4914 42.1873 71.5727 41.0195C71.7139 40.9431 71.8523 40.9049 71.9962 40.9049C72.154 40.9049 72.3173 40.9541 72.4889 41.0523L104.246 59.12C104.017 60.4951 102.81 68.8032 102.254 92.7807L102.182 92.7398L95.8517 89.1383C95.5666 88.9746 95.2981 88.8982 95.0656 88.8982C94.5951 88.8982 94.2768 89.2201 94.2768 89.7958V91.1874C94.2768 92.0468 94.9826 93.1436 95.8517 93.6402L101.238 96.7042L102.159 97.2281C101.999 106.022 101.927 116.69 102.002 129.568L77.8888 115.841L77.8861 116.521L102.151 130.332L151.243 158.274L151.393 158.315L151.678 158.11C155.702 145.472 156.984 131.656 155.611 115.861C155.536 115.623 149.787 99.2853 141.869 83.1303C140.371 80.0635 137.941 77.5206 134.839 75.7662L104.725 58.6998L72.7878 40.5448C72.5221 40.3947 72.2508 40.3156 71.9851 40.3156C71.7443 40.3156 71.5063 40.3784 71.2738 40.5121C68.9766 41.8026 67.4903 50.3208 66.5326 60.1568L66.0455 59.8813L65.741 60.0395L65.1072 69.1634L65.3674 69.6436L65.7632 69.8673C65.73 70.3884 65.6968 70.9096 65.6663 71.4253L50.6926 62.9043L50.2304 69.5672L65.456 75.1932C65.1321 81.5286 64.9716 87.1602 64.8969 90.4398C64.3184 90.0087 63.7289 89.6103 63.131 89.2474L62.6218 88.9473C61.7388 88.4889 60.9002 88.1015 60.1003 87.7768C57.8584 86.8655 55.9403 86.4644 54.2963 86.4644C45.3231 86.4644 44.6007 98.4341 44.645 104.838C44.6312 104.83 44.6174 104.821 44.6035 104.813C44.3683 104.677 44.1413 104.54 43.9254 104.396C41.2932 102.66 39.9537 100.243 39.306 95.5255C39.234 95.0126 39.1731 94.4724 39.1178 93.9021C38.9572 92.2351 38.8576 90.317 38.805 88.096C38.7939 87.6103 38.7829 87.111 38.7773 86.5954C38.7441 84.4181 38.7469 81.9734 38.7663 79.2177C38.7995 74.7076 39.0043 70.4867 39.3364 66.5523C39.378 66.0666 39.4195 65.5837 39.4637 65.1089C39.7184 62.4078 40.0311 59.8458 40.3882 57.4284C40.4712 56.8663 40.557 56.3097 40.6428 55.764C41.5257 50.2635 42.6273 45.5296 43.7593 41.5597C43.8839 41.1177 44.0112 40.6839 44.1385 40.2583C46.9423 30.8806 49.7903 26.1687 49.7709 26.1032C49.9979 25.8412 50.3217 25.5275 50.3577 25.4975C50.4241 25.4402 50.485 25.3883 50.5459 25.3365C50.4989 25.3774 50.4518 25.4183 50.402 25.462C50.4823 25.4319 50.5764 25.4074 50.6788 25.3883C50.7258 25.3856 50.7757 25.3829 50.831 25.3829C51.4233 25.3829 52.4308 25.6557 53.787 26.1632C53.9475 26.256 54.1108 26.3569 54.2769 26.4688C90.4877 48.9621 127.343 68.7104 135.821 73.2069C139.821 76.4919 143.084 80.5928 145.309 85.2667C149.616 94.3087 153.244 103.266 155.558 109.263C158.21 116.136 162.132 122.461 167.199 127.858C170.883 131.786 174.789 135.301 178.924 139.052C187.144 146.506 197.352 150.441 207.783 150.441C213.803 150.441 219.895 149.134 225.73 146.435C232.973 143.085 241.509 138.452 246.707 133.756C255.375 125.926 256.28 116.101 249.156 108.647C249.491 108.947 249.809 109.236 250.114 109.512C252.253 111.446 255.328 115.907 256.192 119.863C256.848 122.864 257.249 124.747 257.811 126.714C258.032 127.489 258.115 127.361 258.782 127.735C259.073 127.898 259.699 127.931 260.119 128.878C260.119 128.878 260.255 129.279 260.357 129.986C260.402 130.305 260.443 130.69 260.46 131.126L260.479 131.154V131.435V134.398V135.137C260.479 135.394 260.474 135.65 260.465 135.909C260.263 142.182 257.614 148.176 252.995 152.52C252.179 153.287 251.345 154.026 250.499 154.741C249.787 155.338 249.065 155.917 248.337 156.479C247.955 156.771 247.573 157.057 247.186 157.341C239.405 163.049 230.687 166.779 222.356 169.202C221.758 169.373 221.163 169.54 220.571 169.701C213.626 171.581 207.028 172.574 201.561 173.076C201.005 173.128 200.454 173.152 199.904 173.152V173.152ZM59.591 64.2877L62.2287 65.7883L62.4917 67.6764L62.5581 67.971L62.7546 68.1566L64.0554 68.896L64.2409 68.6695L62.7352 58.3288L62.3505 57.7776L60.5487 56.7545L60.1224 56.8417L57.3491 64.746L57.4875 65.158L58.7884 65.8975L58.9904 65.9411L59.0956 65.7419L59.591 64.2877V64.2877ZM151.218 157.587L102.602 129.909C102.522 117.034 102.591 106.368 102.749 97.5637L109.035 101.141C109.322 101.304 109.591 101.383 109.821 101.383C110.294 101.383 110.612 101.062 110.612 100.486V99.0916C110.612 98.2349 109.906 97.1381 109.035 96.6415L102.838 93.1164C103.363 69.9465 104.501 61.3191 104.797 59.4365L109.201 61.9412L134.54 76.2737C137.543 77.9653 139.89 80.4236 141.337 83.3922C149.065 99.1462 154.722 115.097 155.021 115.951C156.369 131.5 155.129 145.12 151.218 157.587V157.587ZM146.015 112.395L143.853 116.406L147.927 116.611C148.121 116.622 148.312 116.625 148.498 116.625C149.843 116.625 150.966 116.371 152.19 115.872L152.229 115.893L152.652 116.002L153.211 115.795C153.485 115.566 153.576 115.189 153.444 114.862C153.026 113.803 143.128 88.9636 138.835 81.4604C137.803 79.646 136.281 78.1372 134.435 77.0813L108.96 62.5988L108.022 62.3532C107.072 62.3532 106.25 63.0408 106.117 63.9521C104.96 71.6681 104.543 79.6051 104.877 87.5367C104.919 88.6117 105.533 89.6021 106.483 90.1369L146.015 112.395V112.395ZM221.307 83.2012C221.301 83.1957 221.296 83.193 221.293 83.1903C221.296 83.193 221.301 83.1957 221.307 83.2012ZM221.287 83.1821C221.285 83.1821 221.285 83.1821 221.285 83.1821C221.285 83.1821 221.285 83.1821 221.287 83.1821ZM221.213 83.1166C221.213 83.1139 221.21 83.1139 221.21 83.1139C221.21 83.1139 221.213 83.1139 221.213 83.1166ZM221.204 83.1084C221.202 83.1057 221.199 83.1057 221.199 83.1057C220.803 82.6228 201.952 61.8867 194.877 54.1024C193.388 52.4681 191.653 51.0957 189.782 49.9088L189.607 49.8351C189.021 49.4231 188.464 49.0576 187.988 48.7793L188.791 49.2376C191.072 50.5336 193.12 52.1707 194.877 54.1024C194.905 54.1352 194.935 54.1679 194.966 54.2034C195.251 54.5171 195.555 54.85 195.876 55.2019C199.652 59.3546 205.724 66.0366 210.977 71.8209C211.282 72.1565 211.586 72.4921 211.885 72.8195C211.963 72.9068 212.038 72.9886 212.115 73.0732C213.446 74.5411 214.711 75.9326 215.846 77.185C218.918 80.571 221.069 82.9447 221.199 83.1057C221.199 83.1057 221.202 83.1057 221.204 83.1084V83.1084ZM69.1565 66.334C69.0209 66.334 68.8493 66.274 68.6361 66.1539L67.3104 65.3981L67.172 65.1472L67.3547 62.5333L67.5152 62.4514L68.8409 63.2072C69.1316 63.3709 69.3364 63.5647 69.4637 63.7829C69.5882 64.0012 69.6409 64.2686 69.6187 64.5823L69.5357 65.7665C69.5163 66.0694 69.4332 66.2522 69.2866 66.3095C69.2478 66.3258 69.2035 66.334 69.1565 66.334V66.334ZM62.0267 64.0639L60.0228 62.9234L61.3015 59.09L62.0267 64.0639V64.0639ZM55.2955 26.7634C54.753 26.537 54.2492 26.3378 53.787 26.1632C52.7435 25.5629 51.8164 25.3501 51.141 25.3501C50.9694 25.3501 50.8144 25.3637 50.6788 25.3883C50.6594 25.391 50.6428 25.3938 50.6262 25.3965C50.8006 25.3528 51.0773 25.3092 51.4316 25.3092C52.0848 25.3092 53.012 25.4647 54.1053 26.0868C54.4568 26.2832 54.8526 26.5124 55.2955 26.7634ZM50.9224 25.0282C51.5811 24.5043 52.0903 24.2096 52.9567 23.7158C52.2343 24.1278 51.6032 24.4934 50.9224 25.0282ZM52.9622 23.7158C52.9788 23.7049 52.9954 23.6967 53.012 23.6857C52.9954 23.6967 52.9788 23.7049 52.9622 23.7158ZM53.0286 23.6776C53.0342 23.6722 53.0397 23.6694 53.0453 23.6667C53.0397 23.6694 53.0342 23.6722 53.0286 23.6776ZM53.0702 23.653L58.1518 20.7609L59.4831 20.0024L82.32 7.0041L83.6541 6.24559L91.3208 1.88282C93.5268 0.627736 95.9845 0.000222083 98.4451 0.000222083C100.864 0.000222083 103.283 0.605914 105.459 1.82007C103.283 0.605914 100.864 0.000222083 98.4451 0.000222083C95.9845 0.000222083 93.5268 0.627736 91.3208 1.88282L75.1543 11.0831L53.0702 23.653" fill="url(#paint1_linear)"/>
<path d="M179.631 62.7618C184.114 60.3117 190.688 55.2313 191.781 54.2191C198.836 60.2244 211.59 78.6222 214.56 82.5621L179.631 62.7618V62.7618ZM249.149 108.638C240.264 100.592 221.197 83.105 221.197 83.105C220.801 82.6221 201.95 61.886 194.876 54.1018C193.387 52.4674 191.651 51.095 189.78 49.9081L189.606 49.8345C189 49.4116 188.429 49.0323 187.942 48.754L105.565 1.88217C101.159 -0.627997 95.7283 -0.625269 91.3192 1.88217L75.1526 11.0824L53.0685 23.6524C52.1164 24.1926 51.3304 24.64 50.4004 25.4613C50.4004 25.4613 51.9254 24.8447 54.1037 26.0861C64.8593 32.206 121.197 64.2788 129.744 69.1027C130.467 69.5093 131.247 69.9812 132.047 70.486C137.779 74.093 142.415 79.1979 145.308 85.266C149.614 94.308 153.243 103.265 155.557 109.263C158.208 116.136 162.13 122.46 167.198 127.857C170.882 131.786 174.787 135.3 178.922 139.052C191.886 150.806 209.78 153.81 225.728 146.435C232.971 143.084 241.507 138.451 246.705 133.756C255.376 125.922 256.279 116.092 249.149 108.638" fill="#EEEEEA"/>
<path d="M216.64 80.9613C211.93 75.4716 206.798 70.4267 202.281 64.6151C201.667 64.0094 195.157 56.8419 192.821 54.6264C192.492 54.0834 191.412 54.2144 191.124 55.0302C196.438 61.352 204.769 71.4199 211.18 80.6366L193.726 70.7433L179.134 62.4788C177.786 63.3901 176.295 64.2059 174.814 64.9617C171.146 67.4173 167.031 69.7583 161.47 72.2739C156.726 74.8004 151.883 77.1223 146.84 79.0759L163.076 114.707C164.116 116.586 166.336 117.236 168.431 116.679C175.979 114.671 194.47 108.344 212.353 92.6717C215.104 90.2625 219.292 84.0498 216.64 80.9613Z" fill="#151B1C"/>
<path d="M163.337 115.116C162.737 114.57 162.145 113.675 161.561 112.267C161.644 112.191 161.724 112.114 161.807 112.038L163.077 114.706C163.158 114.851 163.243 114.987 163.337 115.116Z" fill="#E0E0DE"/>
<path d="M166.974 116.872C165.53 116.872 164.171 116.288 163.332 115.115C164.173 116.288 165.53 116.872 166.974 116.872C167.456 116.872 167.946 116.807 168.427 116.678C175.975 114.67 194.467 108.343 212.349 92.6708C213.836 91.3721 215.737 88.9656 216.758 86.54C215.842 88.9083 213.888 91.323 212.349 92.6708C194.467 108.343 175.975 114.67 168.427 116.678C167.946 116.807 167.456 116.872 166.974 116.872ZM161.801 112.037L147.34 81.6779L146.471 80.0218C146.689 79.9209 146.908 79.8199 147.127 79.7189L161.84 111.999C161.826 112.013 161.815 112.024 161.801 112.037V112.037ZM195.292 57.1384C194.306 56.1016 193.421 55.1985 192.817 54.6255L193.454 54.9965L195.292 57.1384ZM192.012 54.3063C192.048 54.279 192.084 54.249 192.12 54.219L192.264 54.3036C192.228 54.3008 192.192 54.2981 192.156 54.2981C192.109 54.2981 192.062 54.3008 192.012 54.3063Z" fill="#6B7878"/>
<path d="M166.981 116.872C165.536 116.872 164.18 116.288 163.338 115.115C163.969 115.691 164.606 115.884 165.248 115.884C165.887 115.884 166.532 115.693 167.177 115.502C167.819 115.311 168.464 115.12 169.103 115.12C169.408 115.12 169.715 115.161 170.017 115.271C170.133 115.24 196.767 106.062 214.794 87.2986C214.846 85.8825 216.474 85.4842 215.909 84.2454C215.782 83.9671 213.573 82.4392 213.244 82.4392C213.233 82.4392 213.225 82.4419 213.219 82.4447C211.271 83.0586 209.308 83.7379 207.346 84.4746C207.13 84.4473 206.684 84.4009 206.028 84.4009C204.993 84.4009 203.435 84.5156 201.431 84.9848C201.179 83.1868 199.779 82.1254 197.695 82.1254C196.942 82.1254 196.098 82.2646 195.187 82.5592C191.005 83.9016 186.964 87.9807 186.175 91.6531C186.031 92.3298 186.006 92.9464 186.089 93.4921C184.93 94.6108 184.204 95.4784 183.941 95.8031C175.414 100.864 167.717 106.518 161.846 111.999L147.133 79.7189C159.012 74.2239 170.224 68.8052 179.84 62.8763L181.118 63.602L193.728 70.7424L203.319 76.1802L204.656 76.936L211.182 80.6357C211.071 80.4748 210.958 80.3138 210.844 80.1501C210.252 79.307 209.643 78.4529 209.026 77.5989C208.489 76.8595 207.946 76.1174 207.396 75.378C207.13 75.0206 206.867 74.6659 206.601 74.3112C201.846 67.973 196.72 61.7194 192.76 56.9774C192.466 56.6254 192.178 56.2816 191.899 55.9488C191.636 55.635 191.378 55.3267 191.127 55.0293C191.426 54.7892 191.724 54.5491 192.018 54.3063C192.068 54.3008 192.115 54.2981 192.162 54.2981C192.198 54.2981 192.234 54.3008 192.27 54.3036L192.823 54.6255C193.427 55.1985 194.312 56.1016 195.298 57.1384L216.286 81.5688C217.564 82.8321 217.484 84.6711 216.765 86.54C215.743 88.9656 213.842 91.3721 212.355 92.6708C194.473 108.343 175.981 114.67 168.434 116.678C167.952 116.807 167.462 116.872 166.981 116.872V116.872ZM187.219 92.4525C187.227 92.1661 187.266 91.8632 187.332 91.544C187.534 90.6027 188.01 89.6341 188.638 88.7009L191.207 89.424C189.638 90.4445 188.304 91.4976 187.219 92.4525ZM192.201 88.8047L189.17 87.9479C190.67 86.0653 192.851 84.4391 195.085 83.7215C195.339 83.6397 195.574 83.6015 195.818 83.547L194.418 87.5878C193.637 87.9752 192.898 88.3845 192.201 88.8047V88.8047ZM195.53 87.053L196.798 83.3941C196.947 83.3832 197.091 83.3778 197.232 83.3778C198.799 83.3778 199.923 84.0654 200.327 85.2686C198.907 85.667 197.302 86.2399 195.53 87.053Z" fill="#2A383A"/>
<path d="M186.086 93.4922C186.003 92.9465 186.028 92.3299 186.172 91.6532C186.961 87.9807 191.002 83.9017 195.184 82.5593C196.095 82.2646 196.939 82.1255 197.692 82.1255C199.776 82.1255 201.176 83.1869 201.428 84.9849C201.074 85.0695 200.706 85.1623 200.324 85.2687C199.92 84.0655 198.796 83.3778 197.229 83.3778C197.088 83.3778 196.944 83.3833 196.795 83.3942L195.527 87.053C195.173 87.2168 194.813 87.3887 194.448 87.5715C194.437 87.5769 194.426 87.5824 194.415 87.5879L195.815 83.547C195.571 83.6016 195.336 83.6398 195.082 83.7216C192.848 84.4392 190.667 86.0654 189.167 87.948L192.198 88.8047C191.857 89.0094 191.525 89.2167 191.204 89.4241L188.635 88.701C188.007 89.6342 187.531 90.6028 187.329 91.5441C187.263 91.8633 187.224 92.1662 187.216 92.4526C186.803 92.8155 186.424 93.1648 186.086 93.4922" fill="#475456"/>
<path d="M163.333 115.116C163.239 114.987 163.153 114.851 163.073 114.706L161.803 112.038C161.817 112.024 161.828 112.014 161.841 112L163.073 114.706C163.153 114.851 163.239 114.987 163.333 115.116" fill="#677475"/>
<path d="M165.245 115.885C164.603 115.885 163.967 115.692 163.336 115.116C163.241 114.988 163.156 114.851 163.075 114.707L161.844 112C167.714 106.519 175.411 100.865 183.939 95.8039C183.867 95.8967 183.831 95.9458 183.831 95.9458C184.097 95.954 184.365 95.9595 184.636 95.9595C194.027 95.9595 206.029 89.8696 207.498 84.5C207.498 84.5 207.446 84.4891 207.343 84.4754C209.306 83.7388 211.268 83.0594 213.216 82.4455C213.222 82.4428 213.23 82.44 213.241 82.44C213.571 82.44 215.779 83.968 215.907 84.2463C216.471 85.485 214.844 85.8833 214.791 87.2994C196.765 106.063 170.13 115.241 170.014 115.271C169.713 115.162 169.405 115.121 169.101 115.121C168.461 115.121 167.817 115.312 167.174 115.503C166.53 115.694 165.885 115.885 165.245 115.885" fill="#475456"/>
<path d="M184.635 95.9595C184.364 95.9595 184.096 95.954 183.83 95.9458C183.83 95.9458 183.866 95.8967 183.938 95.8039C184.201 95.4792 184.926 94.6116 186.086 93.493C186.423 93.1655 186.803 92.8163 187.215 92.4534C188.3 91.4984 189.634 90.4453 191.203 89.4249C191.524 89.2175 191.857 89.0101 192.197 88.8055C192.895 88.3853 193.634 87.9761 194.414 87.5886C194.425 87.5832 194.436 87.5777 194.447 87.5723C194.813 87.3895 195.172 87.2175 195.527 87.0538C197.298 86.2407 198.903 85.6678 200.323 85.2695C200.705 85.1631 201.073 85.0703 201.428 84.9857C203.431 84.5164 204.99 84.4018 206.025 84.4018C206.681 84.4018 207.126 84.4482 207.342 84.4755C207.445 84.4891 207.497 84.5 207.497 84.5C206.028 89.8696 194.027 95.9595 184.635 95.9595" fill="#4A5859"/>
<path d="M152.654 116.002L152.231 115.893L106.485 90.1363C105.535 89.6016 104.921 88.6111 104.879 87.5361C104.545 79.6046 104.963 71.6676 106.119 63.9515C106.252 63.0402 107.074 62.3527 108.024 62.3527L108.962 62.5982L134.437 77.0808C136.283 78.1367 137.805 79.6455 138.837 81.4599C143.13 88.9631 153.028 113.803 153.446 114.861C153.579 115.189 153.487 115.565 153.213 115.795L152.654 116.002" fill="#151B1C"/>
<path d="M138.096 81.8669C137.125 80.1725 135.719 78.781 134.008 77.807C129.073 74.994 118.78 69.1524 108.536 63.3299C107.9 62.967 107.066 63.3599 106.959 64.0747C105.802 71.7935 105.392 79.6023 105.73 87.5066C105.763 88.2924 106.217 89.0209 106.909 89.4111L152.652 115.167C152.652 115.167 142.411 89.4165 138.096 81.8669Z" fill="#252F30"/>
<path d="M150.583 109.91L146.179 112.087L143.852 116.406L147.926 116.611C149.822 116.706 151.242 116.335 152.958 115.533C152.958 115.533 151.397 111.776 150.583 109.91Z" fill="#151B1C"/>
<path d="M146.284 110.53C145.127 110.464 136.547 113.195 136.655 114.197C136.857 116.104 139.888 118.614 141.715 118.985C143.464 119.34 150.782 117.045 150.818 116.371C150.884 115.1 148.49 110.658 146.284 110.53" fill="#DCDCDC"/>
<path d="M222.166 150.436C214.64 153.42 202.966 153.854 192.924 153.033C189.669 152.766 193.234 163.246 197.973 163.647C204.546 164.203 217.026 161.77 223.813 158.291C225.985 157.178 224.803 149.391 222.166 150.436Z" fill="#F0FBFF"/>
<path d="M203.958 163.139C202.059 160.069 201.06 156.689 199.859 153.368C197.509 153.324 195.173 153.215 192.923 153.033C189.671 152.765 193.233 163.245 197.971 163.646C199.704 163.794 201.855 163.723 204.193 163.491L203.958 163.139Z" fill="#E07E14"/>
<path d="M109.035 96.6413L102.182 92.7396L95.8522 89.1381C94.9831 88.6442 94.2773 88.9362 94.2773 89.7956V91.1871C94.2773 92.0466 94.9831 93.1434 95.8522 93.64L101.238 96.704L109.035 101.14C109.907 101.637 110.613 101.342 110.613 100.486V99.0914C110.613 98.2347 109.907 97.1379 109.035 96.6413" fill="#3D3939"/>
<path d="M259.476 130.192C259.327 131.131 258.815 132.228 258.247 133.284C256.894 135.807 253.443 140.11 251.12 141.856C249.933 142.751 249.673 137.226 249.814 135.134C250.002 132.334 255.117 131.125 256.352 120.566C257.367 120.654 259.867 127.748 259.476 130.192" fill="#F0FBFF"/>
<path d="M163.072 114.706L147.5 80.2954C179.549 65.9165 192.347 54.7736 192.347 54.7736C192.347 54.7736 215.458 80.7592 215.043 80.3527C217.749 93.0072 166.908 117.683 163.072 114.706V114.706ZM217.783 81.3376C212.593 76.1918 199.919 60.3068 192.327 53.6631C191.957 53.3384 191.422 53.3793 191.065 53.7204C183.98 60.5224 160.456 72.6011 145.74 79.013C145.14 79.2749 144.89 79.9488 145.173 80.53C147.639 85.6158 158.32 107.73 161.555 115.885C170.636 125.735 227.713 93.4573 217.783 81.3376" fill="#151B1C"/>
<path d="M151.392 158.315L151.243 158.274L102.151 130.333L77.8858 116.521L77.8885 115.842L102.001 129.569C101.927 116.69 101.999 106.022 102.159 97.2284L102.749 97.564C102.591 106.369 102.522 117.034 102.602 129.91L151.218 157.587C155.129 145.121 156.369 131.5 155.021 115.951C154.722 115.097 149.065 99.1465 141.337 83.3925C139.89 80.424 137.542 77.9656 134.539 76.274L109.2 61.9415L104.797 59.4368C104.501 61.3194 103.363 69.9468 102.837 93.1167L102.253 92.781C102.81 68.8035 104.016 60.4955 104.246 59.1203L72.4886 41.0526C72.317 40.9544 72.1537 40.9053 71.9959 40.9053C71.852 40.9053 71.7136 40.9434 71.5724 41.0198C69.4911 42.1876 68.0491 50.3811 67.0859 60.4736L66.5323 60.1571C67.49 50.3211 68.9763 41.8029 71.2735 40.5124C71.506 40.3787 71.744 40.3159 71.9848 40.3159C72.2505 40.3159 72.5218 40.395 72.7875 40.5451L104.725 58.7001L134.838 75.7665C137.941 77.5209 140.371 80.0638 141.868 83.1306C149.787 99.2857 155.536 115.624 155.61 115.861C156.983 131.656 155.702 145.473 151.677 158.111L151.392 158.315V158.315ZM66.2306 71.7475L65.666 71.4256C65.6965 70.9099 65.7297 70.3887 65.7629 69.8676L66.3275 70.1896C66.2943 70.708 66.2611 71.2264 66.2306 71.7475Z" fill="url(#paint2_linear)"/>
<path d="M65.4833 90.9399L64.8965 90.5171C64.8965 90.4925 64.8965 90.4652 64.8965 90.4407C65.0958 90.5853 65.2895 90.7353 65.486 90.8908C65.486 90.9072 65.4833 90.9236 65.4833 90.9399" fill="#161616"/>
<path d="M65.486 90.8892C65.2895 90.7336 65.0958 90.5836 64.8965 90.439C64.9712 87.1594 65.1318 81.5279 65.4556 75.1924L66.0285 75.4053C65.749 80.9331 65.5746 86.3272 65.486 90.8892" fill="url(#paint3_linear)"/>
<path d="M102.75 97.5645L102.16 97.2289C102.191 95.69 102.221 94.2112 102.254 92.7815L102.838 93.1172C102.808 94.5414 102.777 96.0283 102.75 97.5645" fill="#363232"/>
<path d="M261.87 133.24C261.84 132.815 261.699 132.403 261.419 132.075C260.982 131.571 260.462 131.26 260.459 131.126C260.478 151.578 206.471 176.653 184.215 164.249C186.764 169.289 188.472 175.815 188.538 184.434C204.946 187.012 220.669 184.914 235.635 177.455C255.153 167.725 258.787 159.428 261.511 151.887C261.79 151.12 261.87 150.307 261.876 149.491C261.904 145.685 261.981 134.861 261.87 133.24Z" fill="#3A3A3A"/>
<path d="M261.894 133.806L261.869 133.241C261.838 132.815 261.697 132.403 261.417 132.076C260.98 131.571 260.468 131.257 260.457 131.126C256.084 143.524 236.092 157.712 218.063 163.467C199.394 169.426 186.735 163.873 183.582 163.022L184.213 164.25C184.213 164.261 185.359 165.041 187.568 165.999C192.951 168.329 198.91 168.959 204.756 168.334C234.039 165.196 256.61 147.764 261.894 133.806" fill="#4F4F4F"/>
<path d="M225.25 148.959L228.009 157.376C228.009 157.376 240.938 152.304 249.554 143.688L246.8 136.215C246.8 136.215 240.556 141.955 225.25 148.959Z" fill="#3A3A3A"/>
<path d="M46.0142 93.4767L40.1742 90.1344C39.3743 89.6788 38.8734 88.8439 38.8512 87.9326L38.7211 82.5303L33.6173 85.5506C32.668 86.0909 32.084 87.0895 32.084 88.17V96.991C32.084 97.8832 32.5656 98.7099 33.3516 99.1546L44.0574 105.25L44.8296 104.841C44.6414 101.138 44.8545 97.3757 46.0142 93.4767" fill="#3A3A3A"/>
<path d="M165.152 141.784L163.065 140.597C162.447 140.248 161.949 139.467 161.949 138.862C161.949 138.253 162.447 138.043 163.065 138.395L165.152 139.582C165.769 139.934 166.267 140.711 166.267 141.32C166.267 141.928 165.769 142.136 165.152 141.784" fill="#BC6A19"/>
<path d="M41.9775 73.4331L65.0331 86.5542V83.9239L41.9775 70.8029C41.471 70.5137 41.0586 70.6856 41.0586 71.1876V72.0007C41.0586 72.5027 41.471 73.1439 41.9775 73.4331Z" fill="#3D3939"/>
<path d="M212.468 72.074C213.19 71.1381 217.71 67.0427 218.272 67.4956C219.456 68.4506 218.897 72.8898 217.832 74.6851C216.854 76.3331 212.52 80.8459 212.329 80.3084C211.972 79.2934 211.582 73.2117 212.468 72.074" fill="#DCDCDC"/>
<path d="M211.177 80.6357L204.65 76.936L204.919 76.7832L205.176 76.9278L210.839 80.1501C210.953 80.3138 211.066 80.4748 211.177 80.6357ZM209.021 77.599L207.584 76.7804L206.253 76.0246L207.391 75.378C207.941 76.1174 208.484 76.8595 209.021 77.599ZM203.314 76.1802L193.723 70.7424L181.113 63.6021L181.437 63.4165L186.978 66.5706L203.588 76.0246L203.314 76.1802ZM204.919 75.2661L189.151 66.2896L182.771 62.658L192.755 56.9774C196.715 61.7194 201.841 67.973 206.596 74.3112L204.919 75.2661ZM181.437 61.8995L181.415 61.8886C184.889 59.684 188.141 57.4085 191.122 55.0293C191.373 55.3267 191.631 55.635 191.894 55.9488L181.437 61.8995Z" fill="#2F5E6A"/>
<path d="M186.98 66.5713L181.438 63.4172L181.115 63.6027L179.836 62.877C180.367 62.5496 180.896 62.2194 181.416 61.8892L181.438 61.9002L191.895 55.9494C192.175 56.2823 192.463 56.6261 192.756 56.9781L182.773 62.6587L189.152 66.2903C188.427 66.3803 187.702 66.4758 186.98 66.5713" fill="#33616D"/>
<path d="M204.657 76.937L203.32 76.1812L203.594 76.0257L186.984 66.5717C187.707 66.4762 188.432 66.3807 189.157 66.2906L204.925 75.2672L206.602 74.3122C206.868 74.6669 207.131 75.0217 207.397 75.3791L206.259 76.0257L207.59 76.7815C206.788 76.8279 205.982 76.877 205.183 76.9288L204.925 76.7842L204.657 76.937" fill="#33616D"/>
<path d="M210.843 80.1499L205.18 76.9276C205.98 76.8758 206.785 76.8266 207.588 76.7803L209.024 77.5988C209.641 78.4528 210.25 79.3068 210.843 80.1499Z" fill="#34616D"/>
<path d="M55.1854 53.7006L53.7101 52.8603C52.996 52.4565 52.4314 52.3528 52.0135 52.5574C51.5956 52.7621 51.3603 53.2641 51.305 54.0635L50.9701 58.8765C50.9147 59.676 51.0669 60.399 51.4239 61.0456C51.7838 61.6895 52.318 62.2161 53.032 62.6227L54.5073 63.463C55.213 63.8641 55.7749 63.9596 56.1984 63.755C56.6191 63.5449 56.8571 63.0483 56.9125 62.2598L56.9623 61.5449L56.6883 61.0429L55.5507 60.3935L55.2435 60.5682L55.202 61.1902C55.1771 61.5122 55.0996 61.7086 54.9695 61.7768C54.8394 61.8423 54.629 61.7959 54.3384 61.6295L53.4195 61.1057C53.14 60.9474 52.9435 60.7646 52.83 60.5572C52.7193 60.3526 52.6722 60.088 52.6944 59.7633L53.0182 55.1331C53.0403 54.8084 53.1179 54.6147 53.2479 54.5465C53.3808 54.481 53.5856 54.5246 53.8651 54.6856L54.7868 55.2095C55.0747 55.3732 55.2739 55.5587 55.3874 55.7633C55.5009 55.9707 55.5452 56.2353 55.523 56.56L55.4788 57.1821L55.7417 57.676L56.8765 58.3254L57.1976 58.1589L57.2474 57.4468C57.3027 56.6583 57.1477 55.9352 56.7851 55.2831C56.4226 54.6283 55.8912 54.1017 55.1854 53.7006" fill="#3F3B34"/>
<path d="M60.0233 62.9229L61.302 59.0895L62.0272 64.0634L60.0233 62.9229V62.9229ZM62.351 57.7771L60.5492 56.754L60.1229 56.8412L57.3496 64.7455L57.488 65.1575L58.7889 65.897L58.9909 65.9406L59.0961 65.7414L59.5915 64.2871L62.2292 65.7878L62.4922 67.6759L62.5586 67.9705L62.7551 68.156L64.0559 68.8955L64.2414 68.669L62.7357 58.3283L62.351 57.7771" fill="#3F3B34"/>
<path d="M69.5359 65.7666C69.5165 66.0695 69.4335 66.2523 69.2868 66.3096C69.1428 66.3696 68.927 66.3178 68.6363 66.1541L67.3106 65.3983L67.1722 65.1473L67.3549 62.5334L67.5154 62.4515L68.8412 63.2073C69.1318 63.371 69.3366 63.5648 69.4639 63.7831C69.5885 64.0013 69.6411 64.2687 69.6189 64.5825L69.5359 65.7666V65.7666ZM69.8929 68.3204C70.7288 68.3422 71.1827 67.8129 71.2602 66.667L71.3432 65.4829C71.3986 64.6944 71.2436 63.9686 70.8755 63.3083C70.5073 62.648 69.9732 62.116 69.2674 61.7149L66.0457 59.8814L65.7413 60.0396L65.1074 69.1635L65.3676 69.6437L66.519 70.2985L66.8262 70.1403L67.0421 67.0299L67.2165 66.9535L68.1243 67.4692L69.248 71.5209L69.4086 71.8783L69.7545 72.1402L70.8506 72.7651C71.0858 72.8988 71.1716 72.8196 71.108 72.5304L69.8929 68.3204Z" fill="#3F3B34"/>
<path d="M76.3635 65.752L74.927 64.9362C74.2129 64.5297 73.6483 64.4287 73.2303 64.6334C72.8124 64.838 72.5771 65.3373 72.5218 66.1395L72.1869 70.9524C72.1315 71.7491 72.2837 72.4722 72.6408 73.1188C73.0006 73.7655 73.5348 74.2921 74.2489 74.6959L75.6853 75.5144C76.3884 75.9155 76.9475 76.0109 77.3682 75.8008C77.7861 75.5907 78.0213 75.0914 78.0767 74.3029L78.2538 71.7683L77.966 71.2416L75.5968 69.8911L75.2896 70.0493L75.2176 71.0807L75.4805 71.5636L76.2915 72.0247L76.4299 72.2757L76.3635 73.2334C76.3413 73.5581 76.2666 73.7545 76.1393 73.8227C76.0119 73.8937 75.8044 73.8445 75.5165 73.6808L74.6364 73.1816C74.3568 73.0206 74.1603 72.8405 74.0468 72.6332C73.9361 72.4285 73.889 72.1612 73.9112 71.8365L74.235 67.2063C74.2572 66.8843 74.3346 66.6879 74.4647 66.6197C74.5976 66.5542 74.8024 66.6006 75.082 66.7588L75.9621 67.2609C76.25 67.4246 76.4492 67.6074 76.5572 67.812C76.6651 68.0167 76.7066 68.2786 76.6845 68.6032L76.6596 68.9662L76.9225 69.4627L78.0712 70.1175L78.3784 69.9456L78.4116 69.49C78.4642 68.7015 78.3147 67.9812 77.9549 67.3291C77.5979 66.677 77.0665 66.1531 76.3635 65.752" fill="#3F3B34"/>
<path d="M83.4967 77.2947C83.4746 77.6194 83.3971 77.8159 83.267 77.8813C83.1341 77.9495 82.9238 77.9004 82.6359 77.7367L81.6755 77.1883C81.3849 77.0246 81.1884 76.8418 81.0777 76.6372C80.9725 76.4352 80.9282 76.1706 80.9504 75.8459L81.2714 71.2158C81.2964 70.8911 81.3711 70.6946 81.4956 70.6264C81.6229 70.5555 81.8305 70.6018 82.1211 70.7683L83.0815 71.314C83.3722 71.4777 83.5715 71.6659 83.6849 71.8706C83.7956 72.0752 83.8399 72.3426 83.8178 72.6645L83.4967 77.2947ZM85.091 71.3849C84.7311 70.7383 84.1942 70.2117 83.4829 69.8079L81.9662 68.943C81.2521 68.5392 80.6874 68.4382 80.2695 68.6401C79.8516 68.8447 79.6163 69.3468 79.5609 70.1462L79.2261 74.9592C79.1707 75.7586 79.3202 76.4816 79.68 77.1283C80.037 77.7722 80.5739 78.2988 81.288 78.7053L82.8048 79.5675C83.5161 79.974 84.0807 80.075 84.4986 79.8704C84.9166 79.6657 85.1546 79.1637 85.21 78.3643L85.5449 73.554C85.6002 72.7518 85.448 72.0315 85.091 71.3849" fill="#3F3B34"/>
<path d="M84.9348 82.3906L50.6947 62.9041L50.2324 69.567L84.9348 82.3906" fill="#A22B1D"/>
<path d="M66.3283 70.1899L65.7637 69.8679C65.9713 66.6238 66.2231 63.3252 66.5331 60.1575L67.0867 60.4739C66.7878 63.5816 66.5387 66.8722 66.3283 70.1899Z" fill="#38342E"/>
<path d="M66.028 75.4067L65.4551 75.1939C65.5187 73.9634 65.5879 72.7002 65.6654 71.426L66.23 71.7479C66.1581 72.9675 66.0917 74.1926 66.028 75.4067" fill="#8F2619"/>
<path d="M135.821 73.207C127.344 68.7106 90.4879 48.9622 54.277 26.4689C54.1109 26.3571 53.9476 26.2561 53.7871 26.1633C54.2493 26.3379 54.7531 26.5371 55.2956 26.7636C68.4702 34.2613 121.476 64.4379 129.746 69.1035C130.468 69.5101 131.249 69.982 132.049 70.4868C133.366 71.3162 134.628 72.2248 135.821 73.207" fill="url(#paint4_linear)"/>
<path d="M140.985 76.6465C140.985 76.6465 139.866 75.596 137.636 74.1636C137.636 74.1636 137.004 73.8307 135.823 73.2059C134.63 72.2237 133.368 71.3151 132.05 70.4856C131.25 69.9809 130.47 69.5089 129.747 69.1024C121.477 64.4367 68.4715 34.2602 55.2969 26.7624C73.2764 34.2574 133.082 69.8745 137.934 73.7598C139.241 74.7775 139.955 75.5415 140.985 76.6465Z" fill="#EDEDEB"/>
<path d="M140.85 67.5312C141.313 67.182 141.288 66.6909 140.729 66.3717L68.5976 25.3169C68.2987 25.1477 67.9112 25.0658 67.521 25.0658C67.1833 25.0658 66.8456 25.1259 66.5605 25.2486L66.6796 25.1449C66.9868 24.9703 67.3881 24.883 67.7894 24.883C68.1908 24.883 68.5949 24.9703 68.8993 25.1449L141.033 66.1997C141.645 66.549 141.645 67.1138 141.033 67.463L140.85 67.5312V67.5312ZM146.505 64.3144C146.967 63.9652 146.942 63.4713 146.383 63.1548L74.2522 22.1C73.9533 21.9281 73.5658 21.8462 73.1755 21.8462C72.8379 21.8462 72.5002 21.909 72.2124 22.0291L72.3341 21.9281C72.6414 21.7535 73.0427 21.6662 73.444 21.6662C73.8453 21.6662 74.2467 21.7535 74.5539 21.9281L146.688 62.9829C147.299 63.3294 147.299 63.897 146.688 64.2462L146.505 64.3144V64.3144ZM152.16 61.0976C152.619 60.7456 152.597 60.2545 152.038 59.9353L79.904 18.8832C79.6051 18.7113 79.2204 18.6295 78.8301 18.6295C78.4924 18.6295 78.152 18.6922 77.8669 18.8122L77.9887 18.7085C78.2959 18.5366 78.6973 18.4493 79.0986 18.4493C79.4999 18.4493 79.9012 18.5366 80.2084 18.7085L152.34 59.7634C152.954 60.1126 152.954 60.6774 152.34 61.0266L152.16 61.0976ZM157.811 57.878C158.274 57.5288 158.252 57.0376 157.692 56.7184L85.5586 15.6636C85.2597 15.4944 84.8749 15.4099 84.4847 15.4099C84.147 15.4099 83.8066 15.4726 83.5215 15.5954L83.6433 15.4918C83.9477 15.3171 84.3491 15.2298 84.7531 15.2298C85.1545 15.2298 85.5558 15.3171 85.863 15.4918L157.994 56.5466C158.609 56.8958 158.609 57.4605 157.994 57.8098L157.811 57.878V57.878ZM163.466 54.6612C163.928 54.3092 163.903 53.8181 163.344 53.4988L91.2131 12.4468C90.9142 12.2749 90.5267 12.193 90.1392 12.193C89.8016 12.193 89.4611 12.2558 89.1761 12.3786L89.2951 12.2749C89.6023 12.1003 90.0036 12.013 90.405 12.013C90.8091 12.013 91.2104 12.1003 91.5176 12.2749L163.649 53.327C164.263 53.6762 164.263 54.241 163.649 54.5902L163.466 54.6612V54.6612ZM169.121 51.4417C169.583 51.0924 169.558 50.6013 168.999 50.2821L96.8677 9.2272C96.5688 9.05804 96.1813 8.97347 95.791 8.97347C95.4534 8.97347 95.1157 9.03621 94.8279 9.15899L94.9496 9.05534C95.2569 8.88072 95.6582 8.79342 96.0595 8.79342C96.4608 8.79342 96.8622 8.88072 97.1694 9.05534L169.303 50.1101C169.915 50.4594 169.915 51.0242 169.303 51.3734L169.121 51.4417V51.4417ZM174.775 48.2248C175.235 47.8756 175.212 47.3817 174.653 47.0652L102.52 6.01043C102.221 5.83854 101.836 5.75663 101.446 5.75663C101.108 5.75663 100.77 5.81944 100.482 5.94222L100.604 5.8385C100.911 5.66388 101.313 5.57658 101.714 5.57658C102.115 5.57658 102.517 5.66388 102.824 5.8385L174.955 46.8906C175.569 47.2398 175.569 47.8074 174.955 48.1566L174.775 48.2248Z" fill="#E7E6E1"/>
<path d="M20.8787 191.37L14.8488 187.937L15.877 187.352L21.2448 190.407L30.6827 185.001L31.3753 185.395L20.8787 191.37V191.37ZM13.9903 187.449L0 179.486L1.74968 178.49L1.74755 179.31L15.0187 186.864L14.3671 187.234L13.9903 187.449V187.449ZM32.2339 184.906L31.5382 184.511L46.1183 176.158C45.9415 176.515 45.7702 176.895 45.6087 177.293L32.2339 184.906" fill="#4C4A8B"/>
<path d="M14.3486 187.654L13.9922 187.451L14.369 187.236C14.3618 187.38 14.3556 187.51 14.3486 187.654" fill="#207498"/>
<path d="M14.8478 187.94L14.3457 187.655C14.3527 187.511 14.3589 187.381 14.366 187.237L15.0176 186.866L15.876 187.355L14.8478 187.94Z" fill="#207599"/>
<path d="M31.3762 185.396L30.6836 185.003L31.5391 184.513L32.2347 184.908L31.3762 185.396" fill="#674EA7"/>
<path d="M51.6699 171.257L51.6713 170.678L52.1643 170.959C52.0014 171.057 51.835 171.157 51.6699 171.257" fill="#4C4A8B"/>
<path d="M50.1004 189.729C47.8446 189.729 46.3722 188.944 45.4782 187.72L46.0436 187.398L54.2673 182.717L56.8675 181.238L59.073 182.493C56.7937 184.891 57.0214 186.76 54.3904 188.452C53.2549 189.181 51.962 189.649 50.6079 189.715C50.4346 189.724 50.2655 189.729 50.1004 189.729V189.729ZM45.0382 186.992C43.7168 184.341 44.3978 180.291 45.6085 177.295C45.77 176.897 45.9413 176.517 46.1181 176.16L47.0301 175.639L54.492 179.885L56.0091 180.748L54.3444 181.697L46.0994 186.39L45.0382 186.992ZM59.7052 181.876L57.726 180.748L62.6084 177.97L71.0877 173.144L72.4299 172.379L76.495 174.693C73.4658 175.101 69.189 175.858 62.7032 179.713C61.413 180.481 60.4495 181.198 59.7052 181.876V181.876ZM56.8675 180.261L54.5735 178.954L47.8858 175.148L51.6648 172.982L51.6696 171.257C51.8346 171.157 52.0011 171.056 52.164 170.958C55.8141 168.769 58.9499 167.249 61.6358 166.235L63.8483 167.495L71.2645 171.715L71.5721 171.891L71.2163 172.093L62.7102 176.935L56.8675 180.261ZM77.8875 174.509L73.2883 171.891L79.7268 168.226L79.859 168.15C82.3063 169.667 83.6445 171.392 81.723 173.114C80.703 174.028 79.4964 174.286 77.8875 174.509ZM72.4299 171.403L71.3814 170.807L63.9772 166.592L62.6865 165.858C65.5173 164.886 67.8098 164.508 69.6479 164.508C71.0221 164.508 72.1431 164.721 73.0453 165.053C74.9857 165.77 77.2004 166.661 79.0119 167.657L72.4299 171.403" fill="#4C4A8B"/>
<path d="M45.4791 187.72C45.3128 187.491 45.1665 187.249 45.0391 186.992L46.1002 186.39C46.0806 186.724 46.0626 187.064 46.0445 187.398L45.4791 187.72" fill="#674EA7"/>
<path d="M46.043 187.398C46.0611 187.065 46.0791 186.724 46.0988 186.39L54.3438 181.697C54.3174 182.036 54.2916 182.379 54.2667 182.718L46.043 187.398ZM54.4914 179.886L47.0295 175.639L47.8851 175.149L54.5729 178.954C54.545 179.267 54.5187 179.573 54.4914 179.886" fill="#674EA7"/>
<path d="M54.2676 182.717C54.2925 182.378 54.3184 182.036 54.3447 181.697L56.0094 180.748L54.4923 179.885C54.5196 179.572 54.546 179.267 54.5738 178.954L56.8678 180.261L62.7105 176.935C62.6763 177.278 62.6415 177.627 62.6087 177.97L57.7263 180.748L59.7055 181.876C59.4744 182.085 59.265 182.29 59.0734 182.492L56.8678 181.238L54.2676 182.717V182.717ZM63.8487 167.495L61.6361 166.235C61.994 166.1 62.3449 165.975 62.6868 165.857L63.9775 166.592C63.9351 166.891 63.8913 167.196 63.8487 167.495" fill="#674EA7"/>
<path d="M62.6094 177.971C62.6422 177.628 62.6769 177.278 62.7112 176.936L71.2173 172.094C71.1735 172.445 71.1311 172.793 71.0886 173.144L62.6094 177.971ZM71.2654 171.716L63.8493 167.496C63.8919 167.197 63.9358 166.891 63.9782 166.593L71.3824 170.808C71.3433 171.104 71.3031 171.419 71.2654 171.716Z" fill="#674EA7"/>
<path d="M76.4952 174.693L72.4301 172.379L71.0879 173.144C71.1303 172.792 71.1727 172.444 71.2166 172.093L71.5723 171.891L71.2647 171.715C71.3023 171.418 71.3426 171.104 71.3816 170.807L72.4301 171.403L79.0121 167.657C79.2661 167.797 79.5119 167.94 79.7486 168.084C79.7416 168.128 79.7333 168.182 79.727 168.226L73.2885 171.891L77.8877 174.509C77.4539 174.569 76.9917 174.627 76.4952 174.693" fill="#227599"/>
<path d="M79.7266 168.227C79.7328 168.183 79.7412 168.128 79.7482 168.084C79.7853 168.107 79.8223 168.128 79.8593 168.151L79.7266 168.227Z" fill="#227599"/>
<path d="M51.7164 156.167L51.6682 172.982L21.248 190.41L21.2969 173.594L51.7164 156.167Z" fill="#DDB176"/>
<path d="M21.2961 173.594L21.2472 190.41L1.75 179.313L1.79794 162.497L21.2961 173.594Z" fill="#C19564"/>
<path d="M51.7125 156.166L21.293 173.594L1.79492 162.497L32.2144 145.07L51.7125 156.166" fill="#FCD9A9"/>
<path d="M12.0163 172.25L9.75781 170.966V167.041V170.966L12.0163 172.25ZM10.5112 167.457L9.75853 167.041L9.76762 167.034L10.5112 167.457" fill="#C48F66"/>
<path d="M42.5171 150.933L41.5215 150.367L41.4763 150.341L40.2871 149.664L40.3137 149.65L42.5435 150.919L42.5171 150.933" fill="#959081"/>
<path d="M12.0182 168.292L11.0109 167.734L14.0123 166.024L15.0077 166.592L12.0182 168.292ZM10.7289 167.576L10.5131 167.456L9.76953 167.033L12.7772 165.321L13.7337 165.866L10.7289 167.576V167.576ZM41.5974 151.457L40.6018 150.89L41.5236 150.366L42.5192 150.932L41.5974 151.457V151.457ZM40.3239 150.732L39.3674 150.189L40.2892 149.663L41.4783 150.34L41.245 150.208L40.3239 150.732" fill="#D6A37B"/>
<path d="M41.5214 150.367L41.4766 150.341L41.5214 150.367Z" fill="#8A8271"/>
<path d="M11.0085 167.734L10.7266 167.576L13.7313 165.867L14.0099 166.025L11.0085 167.734ZM40.5994 150.89L40.3216 150.732L41.2426 150.209L41.476 150.34L41.5212 150.367L40.5994 150.89Z" fill="#C7936C"/>
<path d="M50.3819 163.521L42.3086 168.116V163.056L50.3819 158.461V163.521Z" fill="#E4E4E4"/>
<path d="M24.7657 186.536V186.274L30.4747 183.025V183.287L24.7657 186.536ZM24.7657 185.684V185.42L30.4747 182.171V182.435L24.7657 185.684ZM24.7657 184.831V184.568L30.4747 181.319V181.581L24.7657 184.831ZM24.7657 183.977V183.716L30.4747 180.467V180.729L24.7657 183.977ZM24.7657 183.125V182.864L30.4747 179.613V179.877L24.7657 183.125ZM23.6699 182.737V182.054L31.5705 177.558V178.241L23.6699 182.737Z" fill="#9A805B"/>
<path d="M43.5488 166.759V166.496L49.2584 163.247V163.509L43.5488 166.759ZM43.5488 165.905V165.644L49.2584 162.395V162.657L43.5488 165.905ZM43.5488 165.053V164.791L49.2584 161.541V161.805L43.5488 165.053ZM43.5488 164.201V163.938L49.2584 160.689V160.951L43.5488 164.201ZM43.5488 163.347V163.085L49.2584 159.837V160.099L43.5488 163.347Z" fill="#9E9E9D"/>
<path d="M12.0163 172.25L9.75781 170.966V167.041L10.5112 167.457L10.7242 167.578L11.0028 167.738L12.0163 168.314V172.25Z" fill="#AD6F47"/>
<path d="M12.0149 168.314L11.0013 167.736L11.0076 167.734L12.0149 168.293V168.314V168.314ZM10.7227 167.578L10.5098 167.457L10.7256 167.576L10.7227 167.578Z" fill="#BD7E56"/>
<path d="M11.0032 167.737L10.7246 167.577L11.0032 167.736V167.737" fill="#A1643F"/>
<path d="M11.0032 167.736L10.7246 167.577L10.7275 167.576L11.0094 167.734L11.0032 167.737" fill="#B0724C"/>
<path d="M23.634 174.104C23.4759 174.464 23.125 174.755 22.8514 174.755C22.5771 174.755 22.4832 174.464 22.6411 174.104C22.7999 173.743 23.1501 173.452 23.4244 173.452C23.6987 173.452 23.7926 173.743 23.634 174.104" fill="#4C4B44"/>
<path d="M25.7087 172.924C25.5506 173.284 25.1997 173.576 24.9254 173.576C24.6511 173.576 24.5572 173.284 24.7158 172.924C24.8739 172.562 25.2248 172.271 25.4991 172.271C25.7727 172.271 25.8666 172.562 25.7087 172.924Z" fill="#4C4B44"/>
<path d="M27.7804 171.744C27.6225 172.104 27.2715 172.397 26.998 172.397C26.7237 172.397 26.6296 172.104 26.7876 171.744C26.9464 171.384 27.2967 171.092 27.571 171.092C27.8453 171.092 27.9392 171.384 27.7804 171.744Z" fill="#4C4B44"/>
<path d="M42.718 152.096L42.7151 157.439L20.9023 169.948L20.9057 164.605L42.718 152.096" fill="#DDB176"/>
<path d="M20.9071 164.605L20.9038 169.948L4.625 160.682L4.62767 155.339L20.9071 164.605Z" fill="#C19564"/>
<path d="M42.7187 152.096L20.9064 164.605L4.62695 155.339L26.4385 142.831L42.7187 152.096Z" fill="#FCD9A9"/>
<path d="M11.9015 159.48L11.2734 159.132L11.2818 159.129L11.9015 159.48Z" fill="#C38E66"/>
<path d="M35.0413 147.726L34.2107 147.253L33.9782 147.119L33.1797 146.666L33.202 146.654L35.0643 147.713L35.0413 147.726Z" fill="#D5A37B"/>
<path d="M13.1601 160.179L12.3185 159.712L34.2094 147.253L35.0399 147.726L13.1601 160.179V160.179ZM12.0838 159.582L11.9029 159.48L11.2832 159.129L33.1783 146.666L33.9768 147.12L12.0838 159.582Z" fill="#D5A37B"/>
<path d="M34.21 147.254L33.9766 147.12L34.21 147.254Z" fill="#C6936C"/>
<path d="M12.3187 159.712L12.084 159.582L33.977 147.12L34.2096 147.254L12.3187 159.712" fill="#C6936C"/>
<path d="M13.1587 162.367L11.2734 161.293V159.132L11.9015 159.48L12.0797 159.582L12.1861 159.643L13.1587 160.197V162.367" fill="#AD6E47"/>
<path d="M13.1615 160.197L12.1889 159.644L12.3149 159.714L12.3199 159.712L13.1615 160.18V160.197V160.197ZM12.0825 159.582L11.9043 159.48L12.0852 159.582H12.0825Z" fill="#BD7E56"/>
<path d="M12.3134 159.713L12.1869 159.643L12.0801 159.582H12.0828L12.3184 159.712L12.3134 159.713Z" fill="#AF724C"/>
<path d="M22.2638 164.974C22.1732 165.182 21.9727 165.349 21.816 165.349C21.6594 165.349 21.6059 165.182 21.6963 164.974C21.7868 164.769 21.9866 164.602 22.144 164.602C22.3007 164.602 22.3543 164.769 22.2638 164.974Z" fill="#4C4B44"/>
<path d="M23.4492 164.301C23.3588 164.506 23.1583 164.673 23.0017 164.673C22.845 164.673 22.7914 164.506 22.8819 164.301C22.9724 164.094 23.1722 163.927 23.3296 163.927C23.4861 163.927 23.5397 164.094 23.4492 164.301Z" fill="#4C4B44"/>
<path d="M24.6332 163.627C24.5427 163.832 24.3421 163.999 24.1855 163.999C24.0288 163.999 23.9752 163.832 24.065 163.627C24.1555 163.421 24.356 163.252 24.5134 163.252C24.6701 163.252 24.7237 163.421 24.6332 163.627Z" fill="#4C4B44"/>
<path d="M41.6057 156.665L34.0059 161.043V158.383L41.6057 154.06V156.665Z" fill="#E4E4E4"/>
<path d="M34.3574 160.543V160.45L41.2861 156.505V156.599L34.3574 160.543ZM34.3574 160.253V160.16L41.2861 156.216V156.309L34.3574 160.253ZM34.3574 159.963V159.87L41.2861 155.927V156.019L34.3574 159.963V159.963ZM34.3574 159.673V159.58L41.2861 155.638V155.729L34.3574 159.673V159.673ZM34.3574 159.383V159.29L41.2861 155.348V155.439L34.3574 159.383V159.383ZM35.4441 158.296V157.957L40.3475 155.167V155.506L35.4441 158.296" fill="#9E9E9D"/>
<path d="M19.7861 168.194L16.0605 166.074V165.981L19.7861 168.101V168.194ZM19.7861 167.904L16.0605 165.786V165.692L19.7861 167.813V167.904ZM19.7861 167.616L16.0605 165.496V165.403L19.7861 167.523V167.616ZM19.7861 167.326L16.0605 165.206V165.114L19.7861 167.235V167.326ZM19.7861 167.038L16.0605 164.918V164.824L19.7861 166.945V167.038ZM19.7861 166.45L16.0605 164.329V164.238L19.7861 166.358V166.45ZM19.7861 166.162L16.0605 164.041V163.948L19.7861 166.068V166.162ZM19.7861 165.872L16.0605 163.751V163.66L19.7861 165.78V165.872ZM19.7861 165.584L16.0605 163.463V163.37L19.7861 165.49V165.584ZM19.7861 165.294L16.0605 163.173V163.082L19.7861 165.2V165.294Z" fill="#896F50"/>
<path d="M67.0655 165.291C67.0655 165.291 67.0128 165.768 66.9668 165.976C67.0037 166.529 66.9417 167.666 67.3985 168.068C68.4942 169.035 69.5003 169.274 70.7214 170.279C71.5958 170.995 72.9763 172.25 74.0687 172.645C75.1709 173.044 76.8564 173.385 78.0455 173.316C79.6058 173.229 81.2412 172.475 81.31 171.161C81.3615 170.175 81.1902 169.804 81.0977 169.737C80.2998 169.163 76.4999 168.567 74.8506 167.757C73.1045 166.898 71.3368 166.097 69.6575 165.175C68.9058 164.76 66.7823 163.725 67.0655 165.291" fill="#E19B5D"/>
<path d="M53.1047 177.138C52.765 175.804 52.9809 174.177 51.7939 173.253C50.8344 172.505 46.8681 171.612 46.3794 173.626C46.2534 174.144 44.9891 180.743 45.1534 182.477C45.2633 183.639 46.3835 184.782 47.3228 185.445C48.4986 186.272 49.6551 186.279 50.9466 185.863C51.9992 185.524 52.9097 184.387 53.4501 183.338C53.8754 182.512 53.6276 179.181 53.1047 177.138Z" fill="#E19B5D"/>
<path d="M67.7404 166.998C66.3133 165.731 67.1508 163.468 67.3178 161.581C67.4091 160.547 67.2356 159.519 67.0116 158.498L73.5323 157.7C73.5824 158.371 73.6373 159.043 73.6818 159.712C73.7927 161.371 73.9151 163.077 74.6441 164.577C75.4078 166.148 82.8517 168.377 80.8328 170.816C80.6105 171.085 80.284 171.246 79.9582 171.376C77.9831 172.162 75.6431 171.993 73.8052 170.932C72.2979 170.06 71.1442 168.65 69.561 167.92C68.94 167.634 68.2494 167.451 67.7404 166.998Z" fill="#232020"/>
<path d="M46.4077 171.938C46.3986 171.615 46.0867 168.022 46.1209 168.02L52.6812 167.658C53.1337 167.633 52.8462 172.556 52.7988 172.959C52.4828 175.65 53.3634 177.718 53.6531 180.394C53.8856 182.539 50.9923 184.307 49.5162 184.263C48.6334 184.237 45.5151 182.95 45.4691 180.99C45.4468 180.034 46.4474 173.352 46.4077 171.938" fill="#232020"/>
<path d="M79.5691 107.363C78.0779 105.367 75.9461 101.189 75.0884 99.9559C73.1648 89.878 70.5115 84.9726 68.7737 83.6461C68.1389 83.1875 67.4454 82.8115 66.7164 82.5286C66.5389 83.5002 66.28 84.4437 65.8691 85.3275C66.5104 87.2672 66.7959 89.3035 66.6225 91.2625C69.7234 96.3384 69.7303 102.416 70.2518 103.317C70.8485 104.345 76.3102 109.545 76.3102 109.545L79.5691 107.363" fill="#F6C29E"/>
<path d="M74.3527 95.1C74.7802 97.1346 68.1891 99.4081 65.9342 98.129C65.9342 98.129 63.4354 87.719 64.55 84.1629C65.5581 80.9477 67.635 79.9708 69.2307 80.9003C72.7318 82.9419 74.3527 95.1 74.3527 95.1" fill="#674EA7"/>
<path d="M70.5272 118.109C68.8982 119.492 50.5406 120.764 48.5375 121.324C47.6582 126.727 46.162 135.974 46.6035 146.384C46.747 149.766 46.5673 153.155 46.2101 156.521C45.5368 162.853 45.9169 168.697 45.8195 173.337C45.681 176.059 53.2327 176.93 53.3546 173.464C53.3546 173.464 54.729 165.108 57.3111 154.415C57.7874 152.443 60.2038 140.805 60.9788 135.541L62.8327 145.312C64.07 154.696 66.0834 158.909 66.9224 163.516C67.1368 164.693 74.1809 165.406 74.1768 162.437C74.1768 162.437 73.7792 145.124 73.4938 142.214C73.365 140.904 72.1856 125.736 70.5272 118.109" fill="#302B2B"/>
<path d="M49.1437 88.0839C50.4636 87.0561 53.0403 85.7647 54.7704 84.953L64.4937 81.1C66.2829 80.3937 67.1851 80.3234 67.9385 80.6607C70.2248 81.6851 70.4594 116.378 70.5269 118.109C70.0514 123.318 54.5239 125.154 48.5372 121.324C48.1821 113.788 45.0645 98.9103 44.9866 98.0318C44.6817 94.604 46.1555 90.4119 49.1437 88.0839" fill="#674EA7"/>
<path d="M88.1686 113.863L68.9172 109.42L56.0957 117.005L56.6742 117.502L75.7644 122.262L88.174 114.401L88.1686 113.863" fill="#474644"/>
<path d="M69.0054 109.886L57.2695 116.828L75.5074 121.386L86.9622 114.1L69.0054 109.886" fill="#F1F1F1"/>
<path d="M79.4655 114.314C79.1376 114.644 78.7387 115.024 78.3516 115.254C78.3975 114.866 78.6161 114.281 78.8618 113.922C79.0506 114.068 79.2497 114.205 79.4655 114.314Z" fill="#474644"/>
<path d="M54.5254 77.2705C54.5227 77.339 62.3898 77.4409 62.5074 78.1648C62.6238 78.8693 62.8034 79.7513 62.8368 80.4646C62.889 81.561 63.2127 83.1265 63.6812 84.1455C63.3429 84.3001 62.4065 84.4688 62.4065 84.4688C62.2923 85.3912 62.0814 89.3584 62.0814 89.3584L60.6736 85.5072C60.6736 85.5072 57.3723 87.352 56.3913 87.048C55.693 86.8319 54.93 86.5894 54.7628 85.7988C54.7175 85.5809 54.6897 85.3525 54.6751 85.1188C54.6265 84.3423 54.7168 83.5042 54.7168 82.7663C54.7182 80.983 54.9111 79.0275 54.5254 77.2705" fill="#EFB68F"/>
<path d="M43.1464 99.8116C43.6032 99.5762 44.0641 99.3162 44.5243 99.0386C46.2788 98.0863 48.1251 97.1516 49.6846 96.0359C50.1031 98.2866 50.2464 103.571 48.9911 111.648C48.9585 111.861 58.729 115.916 59.5665 116.048C60.5566 116.204 65.0082 115.482 65.2888 116.411C65.6098 117.473 61.6441 117.3 62.0375 117.857L64.4616 119.444L67.9699 120.319C67.9699 120.319 66.814 120.721 64.9565 120.987C64.7263 121.018 63.2844 121.406 61.1164 120.444C59.2812 119.628 57.9395 119.263 55.9303 118.815C53.9796 118.379 52.0224 117.975 50.0988 117.534C48.352 117.111 46.6171 116.673 44.9663 116.123C44.1401 115.837 42.7435 115.494 42.3326 114.779C41.5591 113.395 42.0548 105.75 42.5638 99.9838C42.7545 99.9609 42.9495 99.9135 43.1464 99.8116" fill="#F6C29E"/>
<path d="M50.9836 106.762C50.1787 109.48 40.5787 107.636 40.4199 105.313C40.4199 105.313 43.6865 92.2868 46.6448 89.9728C49.3182 87.8803 51.2217 89.0856 52.0048 90.7424C53.7246 94.3775 50.9836 106.762 50.9836 106.762Z" fill="#674EA7"/>
<path d="M63.0121 81.8665C63.0121 81.8665 63.301 83.0314 63.3393 83.2229C63.402 83.5321 63.1457 84.1453 62.4043 84.4685C63.2348 85.0659 64.1233 85.897 64.9991 86.6577C65.0569 86.424 64.5821 84.2507 64.0347 83.0946C63.7235 82.4358 63.0142 81.8788 63.0121 81.8665Z" fill="#3B2B65"/>
<path d="M60.6731 85.507C60.6731 85.507 60.0361 87.4748 59.6706 89.6499C54.0417 89.2019 53.4653 87.4976 53.0566 86.5946C53.2571 85.9287 53.8141 84.3211 54.0738 83.3565L54.6871 83.035C54.614 84.5372 56.5781 85.2909 57.6662 85.5492C58.4655 85.7372 59.8857 85.811 60.6731 85.507" fill="#3B2B65"/>
<path d="M64.5565 81.3147C64.1626 82.3671 64.0512 83.8148 62.7756 84.0643C60.7595 84.4614 57.497 83.5601 55.7412 81.464C53.8378 79.1923 52.8373 75.6221 53.9958 72.5176C54.4616 71.2719 56.8621 71.2262 57.9983 70.3372C58.8157 69.6977 59.7493 69.2848 60.6668 68.9211C63.3639 67.8493 65.564 67.9635 65.6795 70.6517C65.7387 72.0098 65.96 73.3697 65.8558 74.7261C65.5257 79.0324 65.1177 79.816 64.5565 81.3147" fill="#F6C29E"/>
<path d="M61.5861 63.8979C63.6044 64.36 65.127 65.6724 65.7264 66.5895C67.0535 68.6223 66.7325 70.9046 65.7439 72.0449C65.7446 72.0414 65.7556 70.6411 65.1452 70.5673C63.8662 70.4127 62.7322 70.9749 61.6195 71.5108C61.0946 71.7656 60.6387 71.9413 60.0906 72.059C59.5693 72.1714 58.4923 72.4701 58.149 72.9304C57.5245 73.7667 58.0103 75.2197 57.8489 76.1773C57.7506 76.7588 57.4694 77.1718 56.7962 76.8151C56.3521 76.5797 56.2323 75.9717 55.8277 75.6801C55.2214 75.2443 54.4438 75.522 54.2474 76.23C54.0873 76.8098 54.5947 79.8528 55.4372 81.0845C55.4372 81.0845 54.7222 80.5644 54.2821 80.1199C53.6654 79.4944 53.0896 79.1009 52.7171 78.3173C52.2332 77.3017 52.2959 76.7343 51.9625 75.6695C51.6206 74.5767 51.4757 73.5928 51.4165 72.4718C51.3707 71.5951 51.2299 71.4441 51.1283 70.5744C50.964 69.1635 51.2745 68.0162 52.1072 66.8654C52.6335 66.1363 53.3138 65.516 54.0873 65.0487C54.4917 64.8045 54.9325 64.6604 55.3488 64.4443C55.708 64.2598 55.9545 64.0191 56.3583 63.8997C57.9993 63.4095 59.9327 63.5184 61.5861 63.8979" fill="#352D28"/>
<path d="M57.8805 74.1478C59.9922 74.508 66.3895 73.0304 66.964 70.1736C66.964 70.1736 66.751 60.7879 56.6942 62.0494C50.1867 63.1967 50.9992 70.4142 50.9992 70.4142C51.1217 71.5229 56.069 73.8403 57.8805 74.1478" fill="#674EA7"/>
<path d="M70.3615 73.0937C68.8248 73.2729 67.0475 73.9863 65.1294 75.1634C63.5824 76.1139 61.6554 76.2211 59.979 75.5166C58.7084 74.9825 57.1752 74.2586 55.5781 73.4012C57.9251 73.8949 67.1826 72.5069 66.9285 69.7836C66.9285 69.7836 71.8193 72.925 70.3615 73.0937" fill="#3B2B65"/>
<path d="M70.0502 94.2772L66.0539 96.2871L65.7344 94.2121L69.7306 92.2004L70.0502 94.2772" fill="#F1F1F1"/>
<path d="M59.1237 62.9896C59.1237 63.2584 58.6453 63.478 58.0557 63.478C57.4659 63.478 56.9883 63.2584 56.9883 62.9896C56.9883 62.719 57.4659 62.4994 58.0557 62.4994C58.6453 62.4994 59.1237 62.719 59.1237 62.9896Z" fill="#674EA7"/>
<path d="M80.8134 108.922C80.5001 108.676 78.5125 105.948 76.8555 103.628C75.5348 104.581 74.7418 105.744 73.373 106.631L77.9596 111.626C78.0738 111.992 77.819 112.636 77.9081 112.946C77.9826 113.206 78.3252 113.459 78.5208 113.643C79.0479 114.139 79.8137 114.611 80.5482 114.609C81.6399 114.609 82.0938 113.358 82.6563 112.615C83.6902 111.248 81.8821 109.764 80.8134 108.922Z" fill="#F6C29E"/>
<path d="M83.1206 109.166L80.5001 112.88C80.3316 113.145 79.7148 112.889 79.806 112.559L82.4335 108.688C82.698 108.302 83.4152 108.793 83.1206 109.166" fill="#474644"/>
<defs>
<linearGradient id="paint0_linear" x1="262.951" y1="122.529" x2="160.763" y2="129.368" gradientUnits="userSpaceOnUse">
<stop stop-color="#E2E1DB"/>
<stop offset="0.689655" stop-color="#D3D2CC"/>
<stop offset="0.979903" stop-color="#D3D2CC"/>
<stop offset="1" stop-color="#D3D2CC"/>
</linearGradient>
<linearGradient id="paint1_linear" x1="256.214" y1="79.6188" x2="97.5226" y2="90.2402" gradientUnits="userSpaceOnUse">
<stop stop-color="#DBDAD0"/>
<stop offset="0.689655" stop-color="#C2C1B7"/>
<stop offset="0.979903" stop-color="#C2C1B7"/>
<stop offset="1" stop-color="#C2C1B7"/>
</linearGradient>
<linearGradient id="paint2_linear" x1="256.214" y1="79.6191" x2="97.5224" y2="90.2405" gradientUnits="userSpaceOnUse">
<stop stop-color="#C1C0B7"/>
<stop offset="0.689655" stop-color="#ABAAA1"/>
<stop offset="1" stop-color="#ABAAA1"/>
</linearGradient>
<linearGradient id="paint3_linear" x1="256.212" y1="79.618" x2="97.522" y2="90.2392" gradientUnits="userSpaceOnUse">
<stop stop-color="#C1C0B7"/>
<stop offset="0.689655" stop-color="#ABAAA1"/>
<stop offset="1" stop-color="#ABAAA1"/>
</linearGradient>
<linearGradient id="paint4_linear" x1="256.214" y1="79.6189" x2="97.5228" y2="90.2403" gradientUnits="userSpaceOnUse">
<stop stop-color="#E2E1DB"/>
<stop offset="0.689655" stop-color="#D3D2CC"/>
<stop offset="0.979903" stop-color="#D3D2CC"/>
<stop offset="1" stop-color="#D3D2CC"/>
</linearGradient>
</defs>
</svg>
