<svg width="238" height="191" viewBox="0 0 238 191" fill="none" xmlns="http://www.w3.org/2000/svg">
<path fill-rule="evenodd" clip-rule="evenodd" d="M10.8209 131.415C7.51066 124.983 10.5145 117.804 19.8826 112.689L118.625 58.7758C132.63 51.1295 155.553 50.9931 169.827 58.4712L216.294 82.8158C224.108 86.9101 227.71 92.438 227.071 97.8573C230.381 104.289 227.377 111.469 218.009 116.584L119.266 170.497C105.262 178.143 82.338 178.279 68.0646 170.801L21.598 146.457C13.7832 142.362 10.1817 136.835 10.8209 131.415Z" fill="#37474F"/>
<path d="M191.436 97.6726L200.109 92.7258L208.83 97.6996L200.156 102.645L191.436 97.6726" fill="white"/>
<path d="M200.153 101.093L194.16 97.6755L200.115 94.2795L206.106 97.6968L200.153 101.093Z" fill="#8DC025"/>
<path d="M201.53 80.4654L201.383 80.8208L201.088 81.0468C200.888 81.1548 200.646 81.223 200.395 81.2543C199.924 81.3112 199.413 81.2344 199.055 81.0269C198.789 80.8719 198.656 80.6729 198.656 80.4725L198.661 98.0408C198.662 98.2413 198.795 98.4403 199.061 98.5952C199.419 98.8027 199.93 98.8795 200.399 98.8226C200.652 98.7914 200.894 98.7231 201.093 98.6151L201.388 98.3891L201.536 98.0337L201.53 80.4654Z" fill="#331D14"/>
<path d="M208.794 71.6446L208.771 81.3464L200.111 86.2051L200.135 76.5048L208.794 71.6446Z" fill="#719F2C"/>
<path d="M200.133 76.5053L200.11 86.2056L191.396 81.3483L191.42 71.6465L200.133 76.5053" fill="#577A2A"/>
<path d="M208.79 71.6452L200.131 76.5054L191.418 71.6467L200.077 66.788L208.79 71.6452" fill="#8DC025"/>
<path d="M198.811 89.0171L195.514 87.4151V83.7106H196.422V86.8749L199.219 88.2324L198.811 89.0171" fill="#331D14"/>
<path d="M200.079 87.8926L199.621 87.1349L203.571 84.9074V81.7247H204.48V85.4121L200.079 87.8926Z" fill="#331D14"/>
<path d="M199.345 80.2824L199.333 84.6138L194.566 87.2876L194.58 82.9577L199.345 80.2824" fill="#719F2C"/>
<path d="M194.579 82.9572L194.566 87.2871L189.771 84.6133L189.783 80.2834L194.579 82.9572Z" fill="#577A2A"/>
<path d="M199.342 80.2818L194.577 82.957L189.781 80.2832L194.548 77.6094L199.342 80.2818" fill="#8DC025"/>
<path d="M208.011 79.9763L208.002 82.9302L204.75 84.7554L204.759 81.8001L208.011 79.9763" fill="#719F2C"/>
<path d="M204.758 81.7996L204.749 84.7549L201.479 82.9311L201.487 79.9758L204.758 81.7996Z" fill="#577A2A"/>
<path d="M208.007 79.9755L204.755 81.7993L201.484 79.9755L204.736 78.1517L208.007 79.9755Z" fill="#8DC025"/>
<path d="M169.127 83.5477L177.8 78.6023L186.521 83.5761L177.847 88.5215L169.127 83.5477Z" fill="white"/>
<path d="M177.845 86.9668L171.854 83.5509L177.808 80.155L183.799 83.5723L177.845 86.9668Z" fill="#8DC025"/>
<path d="M179.219 66.34L179.073 66.6968L178.778 66.9228C178.577 67.0308 178.336 67.099 178.084 67.1303C177.613 67.1872 177.104 67.1104 176.746 66.9029C176.48 66.7479 176.346 66.5475 176.346 66.3485L176.352 83.9168C176.352 84.1172 176.486 84.3163 176.752 84.4712C177.11 84.6787 177.619 84.7555 178.09 84.6986C178.342 84.6673 178.583 84.5991 178.783 84.4911L179.079 84.2651L179.225 83.9083L179.219 66.34Z" fill="#331D14"/>
<path d="M186.487 57.5211L186.463 67.2229L177.805 72.0815L177.827 62.3812L186.487 57.5211Z" fill="#719F2C"/>
<path d="M177.825 62.3812L177.803 72.0815L169.088 67.2243L169.111 57.5225L177.825 62.3812" fill="#577A2A"/>
<path d="M186.485 57.5208L177.824 62.3809L169.111 57.5222L177.771 52.6635L186.485 57.5208" fill="#8DC025"/>
<path d="M176.503 74.8916L173.205 73.291V69.5851H174.115V72.7494L176.912 74.1084L176.503 74.8916Z" fill="#331D14"/>
<path d="M177.77 73.7686L177.311 73.0109L181.26 70.7834V67.6006H182.17V71.288L177.77 73.7686Z" fill="#331D14"/>
<path d="M177.034 66.1584L177.021 70.4883L172.256 73.1636L172.268 68.8337L177.034 66.1584" fill="#719F2C"/>
<path d="M172.269 68.8332L172.257 73.1631L167.461 70.4892L167.474 66.1594L172.269 68.8332Z" fill="#577A2A"/>
<path d="M177.034 66.1582L172.267 68.8335L167.473 66.1596L172.238 63.4858L177.034 66.1582" fill="#8DC025"/>
<path d="M185.7 65.8527L185.691 68.8066L182.439 70.6318L182.448 67.6765L185.7 65.8527" fill="#719F2C"/>
<path d="M182.449 67.6765L182.44 70.6318L179.168 68.8066L179.177 65.8527L182.449 67.6765" fill="#577A2A"/>
<path d="M185.702 65.8525L182.45 67.6763L179.178 65.8525L182.43 64.0273L185.702 65.8525Z" fill="#8DC025"/>
<path d="M123.408 119.803L95.4965 108.155L95.3867 56.1001L123.303 70.3578L123.408 119.803Z" fill="#C9A076"/>
<path d="M123.301 70.3569L95.3848 56.0993L151.326 24.886L178.007 39.8572L123.301 70.3569Z" fill="#AC8965"/>
<path d="M178.006 39.8576L178.117 91.9129L123.405 119.803L123.301 70.3573L178.006 39.8576Z" fill="#F3DBBA"/>
<path d="M93.4961 52.2431L93.5001 55.3704L123.269 70.3047L123.265 67.1788L93.4961 52.2431Z" fill="#6C53AE"/>
<path d="M123.266 67.1793L123.27 70.3052L182.074 37.46L182.07 34.3327L123.266 67.1793Z" fill="#4C4A8B"/>
<path d="M93.4961 52.243L123.265 67.1787L182.067 34.3321L153.095 19.3964L93.4961 52.243Z" fill="#6C53AE"/>
<path d="M179.44 34.3294L153.092 20.8649L96.1211 52.2459L123.266 65.709L179.44 34.3294Z" fill="#FAE8D2"/>
<path d="M179.441 34.3293L178.08 35.0884L153.107 22.3958V20.8734L179.441 34.3293Z" fill="#614EA7"/>
<path d="M153.092 20.8647L153.106 20.8733V22.3957L97.4149 52.9722L96.1211 52.2458L153.092 20.8647" fill="#4C4A8B"/>
<path d="M123.087 65.8481L97.9212 52.9949L97.8223 31.4038L122.988 44.257L123.087 65.8481Z" fill="#C9A076"/>
<path d="M122.988 44.2568L97.8223 31.4036L153.857 -0.000127409L177.908 13.497L122.988 44.2568" fill="#FAE8D2"/>
<path d="M177.907 13.4966L178.006 35.0878L123.086 65.8477L122.986 44.2565L177.907 13.4966" fill="#F3DBBA"/>
<path d="M123.065 39.0078L122.818 123.175L111.217 147.693L111.463 63.5259L123.065 39.0078Z" fill="#4C4A8B"/>
<path d="M111.465 63.5255L111.218 147.693L67.418 154.264L67.6651 70.0971L111.465 63.5255Z" fill="#7356BC"/>
<path d="M67.665 70.0966L67.4178 154.264L35.2227 136.314L35.4698 52.1474L67.665 70.0966" fill="#4C4A8B"/>
<path d="M123.065 39.0075L111.464 63.5256L67.6633 70.0972L35.4688 52.1479L47.0739 27.627L90.8709 21.0583L123.065 39.0075Z" fill="#7356BC"/>
<path d="M61.4045 34.296C51.5543 39.7887 51.5543 48.7243 61.4045 54.217C71.2553 59.7082 87.2824 59.7082 97.1332 54.217C106.983 48.7243 106.983 39.7887 97.1326 34.2975C87.2824 28.8048 71.2547 28.8048 61.4045 34.296V34.296ZM98.3747 54.9092C87.8396 60.7829 70.6981 60.7829 60.163 54.9092C49.628 49.0342 49.628 39.4774 60.163 33.6038C70.6981 27.7316 87.839 27.7316 98.3742 33.6052C108.909 39.4789 108.909 49.0356 98.3747 54.9092Z" fill="white"/>
<path d="M64.5613 40.4949L72.8055 45.092L80.7948 40.637L72.5507 36.0413L77.3885 33.3433L98.8421 45.3053L94.0044 48.0018L85.0282 42.9967L77.0388 47.4517L86.0149 52.4568L81.145 55.1719L59.6914 43.2114L64.5613 40.4949" fill="white"/>
<path d="M37.5312 57.4356L45.63 61.9503L45.6294 73.2754L37.5312 68.7607V57.4356Z" fill="#4F96A5"/>
<path d="M37.8743 68.9512L37.5332 68.7607V57.4356L45.6319 61.9503V62.3227L37.8743 57.9971V68.9512" fill="#255368"/>
<path d="M47.3867 62.6934L55.4849 67.2081V78.5332L47.3867 74.0185V62.6934" fill="#4F96A5"/>
<path d="M55.4849 67.2085L47.3867 62.6938L55.4849 67.2085Z" fill="#222F1A"/>
<path d="M47.7292 74.2095L47.3887 74.019V62.6939L55.4868 67.2086V67.581L47.7298 63.2554L47.7292 74.2095" fill="#255368"/>
<path d="M57.2564 68.0191L65.354 72.5338V83.8589L57.2559 79.3442L57.2564 68.0191Z" fill="#4F96A5"/>
<path d="M57.5987 79.5337L57.2578 79.3432L57.5987 79.5337Z" fill="#222F1A"/>
<path d="M57.5987 79.5337L57.2578 79.3432L57.2584 68.0182L65.3559 72.5328V72.9053L57.5987 68.5796V79.5337" fill="#255368"/>
<path d="M37.5312 73.7755L45.63 78.2902L45.6294 89.6167L37.5312 85.102V73.7755Z" fill="#4F96A5"/>
<path d="M37.8743 85.292L37.5332 85.103L37.8743 85.292ZM45.6319 78.6636V78.2911V78.6636Z" fill="#222F1A"/>
<path d="M37.8743 85.292L37.5332 85.103V73.7765L45.6319 78.2911V78.6636L37.8743 74.3394V85.292" fill="#255368"/>
<path d="M47.3867 79.0343L55.4849 83.549V94.8755L47.3867 90.3608V79.0343" fill="#4F96A5"/>
<path d="M55.4849 83.5483L47.3867 79.0337L55.4849 83.5483Z" fill="#222F1A"/>
<path d="M47.7272 90.5493L47.3867 90.3602V79.0337L55.4849 83.5484V83.9208L47.7278 79.5967L47.7272 90.5493" fill="#255368"/>
<path d="M57.2584 84.359L65.3559 88.8737V100.2L57.2578 95.6855L57.2584 84.359Z" fill="#4F96A5"/>
<path d="M57.5987 95.8745L57.2578 95.6854L57.2584 84.3589L65.3559 88.8736V89.246L57.5987 84.9218V95.8745" fill="#255368"/>
<path d="M37.5312 90.1178L45.63 94.6325L45.6294 105.959L37.5312 101.443V90.1178Z" fill="#4F96A5"/>
<path d="M37.8723 101.632L37.5312 101.442V90.1168L45.63 94.6314V95.0039L37.8723 90.6797V101.632" fill="#255368"/>
<path d="M47.3887 95.3756L55.4868 99.8903V111.217L47.3887 106.701V95.3756" fill="#4F96A5"/>
<path d="M47.7292 106.891L47.3887 106.701L47.7292 106.891ZM55.4868 99.8902L47.3887 95.3756L55.4868 99.8902Z" fill="#222F1A"/>
<path d="M47.7292 106.891L47.3887 106.701V95.3756L55.4868 99.8902V100.263L47.7298 95.9385L47.7292 106.891" fill="#255368"/>
<path d="M57.2584 100.7L65.3559 105.215V116.542L57.2578 112.025L57.2584 100.7Z" fill="#4F96A5"/>
<path d="M57.6007 112.216L57.2598 112.026L57.2604 100.701L65.3579 105.215V105.588L57.6007 101.264V112.216" fill="#255368"/>
<path d="M37.5312 106.459L45.63 110.974L45.6294 122.299L37.5312 117.784V106.459Z" fill="#4F96A5"/>
<path d="M37.8723 117.975L37.5312 117.784L37.8723 117.975ZM45.63 111.346V110.974V111.346Z" fill="#222F1A"/>
<path d="M37.8723 117.975L37.5312 117.784V106.459L45.63 110.974V111.346L37.8723 107.021V117.975" fill="#255368"/>
<path d="M47.3887 111.717L55.4868 116.232V127.557L47.3887 123.042V111.717" fill="#4F96A5"/>
<path d="M55.4868 116.604V116.232L47.3887 111.717L55.4868 116.232V116.604Z" fill="#222F1A"/>
<path d="M47.7272 123.232L47.3867 123.042V111.717L55.4849 116.232V116.604L47.7278 112.278L47.7272 123.232" fill="#255368"/>
<path d="M57.2584 117.042L65.3559 121.557V132.882L57.2578 128.367L57.2584 117.042Z" fill="#4F96A5"/>
<path d="M57.5987 128.558L57.2578 128.367L57.2584 117.042L65.3559 121.557V121.929L57.5987 117.604V128.558" fill="#255368"/>
<path d="M37.5293 122.799L45.628 127.314L45.6274 138.64L37.5293 134.125V122.799Z" fill="#4F96A5"/>
<path d="M37.8723 134.315L37.5312 134.126V122.799L45.63 127.314V127.686L37.8723 123.362V134.315" fill="#255368"/>
<path d="M47.3887 128.057L55.4868 132.572V143.898L47.3887 139.384V128.057" fill="#4F96A5"/>
<path d="M55.4849 132.571L47.3867 128.057L55.4849 132.571Z" fill="#222F1A"/>
<path d="M47.7272 139.574L47.3867 139.383V128.057L55.4849 132.571V132.944L47.7278 128.62L47.7272 139.574" fill="#255368"/>
<path d="M57.2584 133.382L65.3559 137.897V149.224L57.2578 144.709L57.2584 133.382Z" fill="#4F96A5"/>
<path d="M57.5987 144.898L57.2578 144.709L57.2584 133.383L65.3559 137.898V138.27L57.5987 133.946V144.898" fill="#255368"/>
<path d="M149.313 35.6753L142.42 39.5176V49.1567L149.313 45.3144V35.6753Z" fill="#2D344A"/>
<path d="M149.023 45.4766L149.022 36.1544L142.42 39.8346V39.5176L149.313 35.6753V45.3145L149.023 45.4766" fill="#151518"/>
<path d="M140.924 40.1504L134.031 43.9927V53.6333L140.924 49.7896V40.1504" fill="#2D344A"/>
<path d="M140.634 49.9517V40.6295L134.031 44.3097V43.9927L140.924 40.1504V49.7896L140.634 49.9517" fill="#151518"/>
<path d="M132.521 44.6821L125.629 48.5258V58.165L132.522 54.3227L132.521 44.6821" fill="#2D344A"/>
<path d="M132.233 54.4849L132.524 54.3228L132.233 54.4849ZM125.631 48.8429V48.5259V48.8429Z" fill="#2A2C36"/>
<path d="M132.233 54.4849V45.1613L125.631 48.8429V48.5259L132.523 44.6822L132.524 54.3228L132.233 54.4834" fill="#151518"/>
<path d="M175.287 21.9086L168.395 25.7509V35.3901L175.287 31.5478V21.9086Z" fill="#2D344A"/>
<path d="M174.999 31.7085V22.3863L168.396 26.068V25.751L175.289 21.9087V31.5479L174.999 31.7085Z" fill="#151518"/>
<path d="M166.898 26.3827L160.006 30.2251V39.8643L166.898 36.0219V26.3827Z" fill="#2D344A"/>
<path d="M160.006 30.5415V30.2245V30.5415ZM160.006 30.2245L166.898 26.3822L160.006 30.2245Z" fill="#2A2C36"/>
<path d="M166.608 36.1841V26.8619L160.006 30.5422V30.2252L166.898 26.3828V36.022L166.608 36.1841" fill="#151518"/>
<path d="M158.498 30.9146L151.605 34.7568V44.3975L158.498 40.5537L158.498 30.9146" fill="#2D344A"/>
<path d="M158.208 40.7163V31.3941L151.605 35.0758V34.7574L158.498 30.9151L158.498 40.5542L158.208 40.7163" fill="#151518"/>
<path d="M82.1041 72.0681L82.0793 83.3875L73.2734 84.7095L73.2982 73.3886L82.1041 72.0681" fill="#80D0D7"/>
<path d="M81.8133 83.4292L81.8374 72.4112L73.2988 73.6919L73.2994 73.3891L82.1053 72.0686L82.0806 83.388L81.8133 83.4292Z" fill="#4A9FB7"/>
<path d="M94.1615 70.5305L94.1361 81.8513L85.3301 83.1719L85.3548 71.8525L94.1615 70.5305" fill="#80D0D7"/>
<path d="M93.868 81.8916L93.8915 70.8736L85.3535 72.1543L85.3541 71.853L94.1607 70.531L94.1354 81.8518L93.868 81.8916Z" fill="#4A9FB7"/>
<path d="M106.215 68.9943L106.191 80.3137L97.3848 81.6343L97.4101 70.3149L106.215 68.9943Z" fill="#80D0D7"/>
<path d="M97.4082 70.6172L97.4094 70.3144L97.4082 70.6172ZM97.4094 70.3144L106.215 68.9938L97.4094 70.3144Z" fill="#346129"/>
<path d="M105.923 80.353L105.947 69.3364L97.4082 70.6172L97.4094 70.3144L106.215 68.9938L106.19 80.3133L105.923 80.353" fill="#4A9FB7"/>
<path d="M82.1041 88.5666L82.0793 99.8874L73.2734 101.208L73.2982 89.8886L82.1041 88.5666" fill="#80D0D7"/>
<path d="M81.8133 99.9272L81.8374 88.9092L73.2988 90.19L73.2994 89.8886L82.1053 88.5666L82.0806 99.8874L81.8133 99.9272Z" fill="#4A9FB7"/>
<path d="M94.1595 87.03L94.1342 98.3493L85.3281 99.6699L85.3529 88.3505L94.1595 87.03Z" fill="#80D0D7"/>
<path d="M93.868 98.3892L93.8915 87.3711L85.3535 88.6533L85.3541 88.3505L94.1607 87.03L94.1354 98.3494L93.868 98.3892Z" fill="#4A9FB7"/>
<path d="M106.215 85.4914L106.191 96.8108L97.3848 98.1328L97.4101 86.812L106.215 85.4914" fill="#80D0D7"/>
<path d="M97.4082 87.1147L97.4094 86.812L97.4082 87.1147Z" fill="#346129"/>
<path d="M105.923 96.8511L105.947 85.8344L97.4082 87.1152L97.4094 86.8125L106.215 85.4919L106.19 96.8113L105.923 96.8511" fill="#4A9FB7"/>
<path d="M82.1041 105.066L82.0793 116.385L73.2734 117.706L73.2982 106.386L82.1041 105.066" fill="#80D0D7"/>
<path d="M81.8133 116.425L81.8374 105.407L73.2988 106.689L73.2994 106.386L82.1053 105.066L82.0806 116.385L81.8133 116.425" fill="#4A9FB7"/>
<path d="M94.1615 103.528L94.1361 114.847L85.3301 116.169L85.3548 104.848L94.1615 103.528Z" fill="#80D0D7"/>
<path d="M93.8699 114.887L93.8935 103.87L85.3555 105.151L85.3561 104.848L94.1627 103.528L94.1374 114.847L93.8699 114.887" fill="#4A9FB7"/>
<path d="M106.217 101.99L106.193 113.311L97.3867 114.631L97.412 103.312L106.217 101.99Z" fill="#80D0D7"/>
<path d="M97.4082 103.613L97.4094 103.312L97.4082 103.613Z" fill="#346129"/>
<path d="M105.921 113.351L105.945 102.333L97.4062 103.613L97.4074 103.312L106.213 101.99L106.188 113.311L105.921 113.351Z" fill="#4A9FB7"/>
<path d="M82.1021 120.923L82.0774 132.242L73.2715 133.564L73.2962 122.245L82.1021 120.923" fill="#80D0D7"/>
<path d="M81.8133 132.284L82.0806 132.242L82.1053 120.923L82.0806 132.242L81.8133 132.284ZM73.2988 122.546L73.2994 122.245L73.2988 122.546Z" fill="#346129"/>
<path d="M81.8133 132.284L81.8374 121.266L73.2988 122.546L73.2994 122.245L82.1053 120.923L82.0806 132.242L81.8133 132.284Z" fill="#4A9FB7"/>
<path d="M94.1615 119.386L94.1361 130.706L85.3301 132.026L85.3548 120.707L94.1615 119.386Z" fill="#80D0D7"/>
<path d="M93.8699 130.745L93.8935 119.727L85.3555 121.009L85.3561 120.706L94.1627 119.386L94.1374 130.705L93.8699 130.745Z" fill="#4A9FB7"/>
<path d="M106.215 117.848L106.191 129.167L97.3848 130.489L97.4101 119.168L106.215 117.848" fill="#80D0D7"/>
<path d="M97.4082 119.472L97.4094 119.169L97.4082 119.472Z" fill="#346129"/>
<path d="M105.923 129.208L105.947 118.191L97.4082 119.472L97.4094 119.169L106.215 117.848L106.19 129.168L105.923 129.208Z" fill="#4A9FB7"/>
<path d="M82.1164 137.421L82.0911 148.741L73.2852 150.062L73.3099 138.743L82.1164 137.421" fill="#80D0D7"/>
<path d="M81.8238 148.781L81.8479 137.763L73.3105 139.045V138.743L82.117 137.421L82.0917 148.741L81.8238 148.781Z" fill="#4A9FB7"/>
<path d="M94.1732 135.884L94.1478 147.203L85.3418 148.525L85.3665 137.205L94.1732 135.884Z" fill="#80D0D7"/>
<path d="M85.3633 137.508L85.3639 137.205L85.3633 137.508ZM85.3639 137.205L94.1699 135.884L85.3639 137.205Z" fill="#346129"/>
<path d="M93.8791 147.243L93.9032 136.227L85.3652 137.507L85.3658 137.205L94.1725 135.884L94.1471 147.203L93.8791 147.243Z" fill="#4A9FB7"/>
<path d="M106.228 134.346L106.202 145.665L97.3965 146.987L97.4212 135.666L106.228 134.346" fill="#80D0D7"/>
<path d="M105.936 145.707L105.96 134.688L97.4219 135.969L97.4225 135.666L106.229 134.346L106.204 145.665L105.936 145.707" fill="#4A9FB7"/>
<path d="M119.412 61.2735L119.273 72.6697L114.873 79.7886L115.012 68.391L119.412 61.2735Z" fill="#4F96A5"/>
<path d="M118.967 73.1655L119.273 72.6694L119.412 61.2732L119.273 72.6694L118.967 73.1655Z" fill="#34662B"/>
<path d="M118.968 73.1655L119.098 62.4972L115.004 69.1199L115.013 68.3907L119.413 61.2732L119.274 72.6694L118.968 73.1655" fill="#33738C"/>
<path d="M119.477 77.6973L119.338 89.0935L114.938 96.2109L115.077 84.8148L119.477 77.6973Z" fill="#52A3B4"/>
<path d="M119.032 89.5898L119.162 78.9215L115.068 85.5428L115.077 84.815L119.478 77.6976L119.339 89.0937L119.032 89.5898" fill="#33738C"/>
<path d="M119.543 94.1221L119.404 105.518L115.004 112.636L115.143 101.24L119.543 94.1221Z" fill="#4F96A5"/>
<path d="M119.097 106.014L119.227 95.3439L115.133 101.967L115.142 101.239L119.542 94.1214L119.403 105.518L119.097 106.014Z" fill="#33738C"/>
<path d="M119.608 110.545L119.469 121.942L115.068 129.06L115.207 117.662L119.608 110.545Z" fill="#4F96A5"/>
<path d="M119.163 122.437L119.469 121.942L119.609 110.544L119.469 121.942L119.163 122.437ZM115.199 118.391L115.208 117.662L115.2 118.391H115.199Z" fill="#34662B"/>
<path d="M119.163 122.437L119.293 111.768L115.199 118.391L115.208 117.662L119.608 110.544L119.469 121.942L119.163 122.437Z" fill="#33738C"/>
<path d="M134.552 67.5583L134.573 93.2861L129.448 96.1987L129.428 70.471L134.552 67.5583Z" fill="#2D344A"/>
<path d="M134.055 93.5811L134.575 93.2854L134.055 93.5811ZM129.43 71.0417V70.4703V71.0417Z" fill="#2A2C36"/>
<path d="M134.055 93.5811L134.034 68.4248L129.43 71.0417V70.4703L134.554 67.5576L134.575 93.2854L134.055 93.5811" fill="#151518"/>
<path d="M143.93 62.6125L143.951 88.3403L138.825 91.2529L138.805 65.5252L143.93 62.6125Z" fill="#2D344A"/>
<path d="M143.43 88.6367L143.409 63.4804L138.805 66.0974V65.526L143.93 62.6133L143.951 88.3411L143.43 88.6367" fill="#151518"/>
<path d="M153.308 57.6672L153.328 83.395L148.203 86.3076L148.182 60.5799L153.308 57.6672Z" fill="#2D344A"/>
<path d="M152.805 83.6909L152.785 58.5346L148.18 61.1516L148.18 60.5802L153.306 57.6675L153.326 83.3952L152.805 83.6909" fill="#151518"/>
<path d="M162.683 52.7205L162.704 78.4482L157.579 81.3623L157.559 55.6346L162.683 52.7205Z" fill="#2D344A"/>
<path d="M162.184 78.7451L162.703 78.448L162.184 78.7451ZM162.703 78.448L162.683 52.7203L162.703 78.448Z" fill="#2A2C36"/>
<path d="M162.184 78.7456L162.164 53.5893L157.559 56.2063L157.559 55.6348L162.683 52.7222L162.704 78.4485L162.184 78.7456" fill="#151518"/>
<path d="M172.059 47.7756L172.08 73.5034L166.954 76.416L166.934 50.6883L172.059 47.7756Z" fill="#2D344A"/>
<path d="M171.559 73.7983L171.538 48.6435L166.935 51.2604L166.934 50.6876L172.059 47.7749L172.08 73.5027L171.559 73.7983" fill="#151518"/>
<path d="M136.325 108.799L130.322 112.145V102.983L136.324 99.6372L136.325 108.799" fill="#FBEAD3"/>
<path d="M133.175 108.648L130.848 109.946V103.023L133.175 101.727L133.175 108.648Z" fill="#2D344A"/>
<path d="M135.798 107.187L133.471 108.485V101.562L135.798 100.266V107.187" fill="#2D344A"/>
<path d="M135.652 107.268V100.5L133.473 101.715V101.562L135.8 100.265V107.187L135.652 107.268" fill="#151518"/>
<path d="M133.03 108.729V101.962L130.85 103.178V103.023L133.177 101.726L133.177 108.647L133.03 108.729Z" fill="#151518"/>
<path d="M145.924 103.922L139.922 107.268V98.1065L145.924 94.7589V103.922Z" fill="#FBEAD3"/>
<path d="M142.775 103.771L140.448 105.069L140.447 98.1476L142.775 96.8497V103.771Z" fill="#2D344A"/>
<path d="M145.396 102.309L143.069 103.605L143.068 96.6842L145.396 95.3863V102.309" fill="#2D344A"/>
<path d="M145.249 102.391L145.396 102.31V95.3869V102.31L145.249 102.391ZM143.068 96.8383V96.6847V96.8383Z" fill="#2C303D"/>
<path d="M145.249 102.391V95.6229L143.068 96.8383V96.6847L145.396 95.3869V102.31L145.249 102.391Z" fill="#151518"/>
<path d="M142.628 103.852L142.775 103.771V96.8497V103.771L142.628 103.852ZM140.447 98.3011V98.1476V98.3011Z" fill="#2C303D"/>
<path d="M142.628 103.852V97.0857L140.447 98.3011V98.1476L142.775 96.8497V103.771L142.628 103.852Z" fill="#151518"/>
<path d="M155.522 99.0444L149.52 102.391V93.229L155.522 89.8828L155.522 99.0444Z" fill="#FBEAD3"/>
<path d="M152.373 98.8936L150.045 100.191V93.2701L152.372 91.9723L152.373 98.8936Z" fill="#2D344A"/>
<path d="M154.994 97.4331L152.666 98.7295V91.8082L154.993 90.5118L154.994 97.4331Z" fill="#2D344A"/>
<path d="M154.846 97.5137V90.7459L152.666 91.9627V91.8078L154.993 90.5114L154.994 97.4326L154.846 97.5137Z" fill="#151518"/>
<path d="M152.229 98.9751V92.2074L150.049 93.4242V93.2706L152.376 91.9728L152.377 98.8941L152.229 98.9751Z" fill="#151518"/>
<path d="M165.121 94.167L159.117 97.5132V88.3516L165.119 85.004L165.121 94.167Z" fill="#FBEAD3"/>
<path d="M161.971 94.0166L159.643 95.3145V88.3932L161.971 87.0954V94.0166Z" fill="#2D344A"/>
<path d="M164.592 92.5551L162.265 93.8516L162.264 86.9303L164.592 85.6339V92.5551Z" fill="#2D344A"/>
<path d="M164.445 92.6367L164.592 92.5557V85.6344V92.5557L164.445 92.6367ZM162.264 87.0843V86.9308V87.0843Z" fill="#2C303D"/>
<path d="M164.445 92.6367V85.8689L162.264 87.0843V86.9308L164.592 85.6344V92.5557L164.445 92.6367" fill="#151518"/>
<path d="M161.823 94.0981V87.3304L159.643 88.5472V88.3936L161.971 87.0958V94.0171L161.823 94.0981Z" fill="#151518"/>
<path d="M174.716 89.29L168.715 92.6362V83.4747L174.716 80.127V89.29Z" fill="#FBEAD3"/>
<path d="M171.568 89.1392L169.24 90.437V83.5157L171.568 82.2179V89.1392Z" fill="#2D344A"/>
<path d="M174.193 87.6782L171.865 88.9746V82.0533L174.193 80.7569V87.6782Z" fill="#2D344A"/>
<path d="M174.045 87.7593V80.9915L171.865 82.2069V82.0534L174.193 80.757V87.6782L174.045 87.7593" fill="#151518"/>
<path d="M171.422 89.2212V82.4548L169.242 83.6702V83.5167L171.57 82.2189V89.1402L171.422 89.2212" fill="#151518"/>
<path d="M161.379 114.164L170.052 109.218L178.773 114.191L170.099 119.138L161.379 114.164" fill="white"/>
<path d="M170.094 117.583L164.102 114.166L170.056 110.77L176.047 114.188L170.094 117.583Z" fill="#8DC025"/>
<path d="M171.471 96.9568L171.324 97.3122L171.029 97.5397C170.829 97.6463 170.588 97.7159 170.336 97.7458C169.865 97.8026 169.354 97.7273 168.997 97.5183C168.73 97.3634 168.598 97.1644 168.598 96.9654L168.602 114.534C168.604 114.733 168.736 114.933 169.002 115.088C169.36 115.296 169.871 115.372 170.341 115.314C170.594 115.284 170.835 115.215 171.034 115.108L171.33 114.882L171.477 114.525L171.471 96.9568Z" fill="#331D14"/>
<path d="M178.733 88.1373L178.711 97.8376L170.051 102.698L170.074 92.996L178.733 88.1373Z" fill="#719F2C"/>
<path d="M170.075 92.9965L170.051 102.698L161.338 97.8395L161.361 88.1392L170.075 92.9965" fill="#577A2A"/>
<path d="M178.733 88.1374L170.074 92.9961L161.361 88.1388L170.02 83.2787L178.733 88.1374" fill="#8DC025"/>
<path d="M168.752 105.508L165.453 103.908V100.202H166.363V103.366L169.16 104.724L168.752 105.508Z" fill="#331D14"/>
<path d="M170.02 104.385L169.562 103.626L173.512 101.4V98.2169H174.422V101.904L170.02 104.385" fill="#331D14"/>
<path d="M169.286 96.7736L169.274 101.104L164.508 103.777L164.521 99.4474L169.286 96.7736" fill="#719F2C"/>
<path d="M164.517 99.4484L164.504 103.778L159.709 101.106L159.722 96.776L164.517 99.4484" fill="#577A2A"/>
<path d="M169.285 96.7739L164.52 99.4478L159.725 96.7753L164.491 94.1001L169.285 96.7739" fill="#8DC025"/>
<path d="M177.95 96.467L177.941 99.4223L174.689 101.246L174.698 98.2922L177.95 96.467" fill="#719F2C"/>
<path d="M174.698 98.2927L174.689 101.247L171.418 99.4228L171.427 96.4689L174.698 98.2927Z" fill="#577A2A"/>
<path d="M177.95 96.4673L174.699 98.2925L171.428 96.4687L174.68 94.6435L177.95 96.4673Z" fill="#8DC025"/>
<path d="M127.289 132.515L135.963 127.568L144.683 132.542L136.01 137.487L127.289 132.515" fill="white"/>
<path d="M136.005 135.935L130.014 132.517L135.967 129.121L141.959 132.539L136.005 135.935Z" fill="#8DC025"/>
<path d="M137.384 115.308L137.237 115.663L136.942 115.889C136.742 115.997 136.501 116.065 136.249 116.096C135.778 116.153 135.268 116.077 134.91 115.869C134.643 115.714 134.51 115.515 134.51 115.315L134.516 132.883C134.516 133.083 134.649 133.282 134.915 133.437C135.273 133.646 135.784 133.722 136.254 133.665C136.506 133.635 136.747 133.565 136.947 133.457L137.243 133.231L137.39 132.876L137.384 115.308Z" fill="#331D14"/>
<path d="M144.647 106.487L144.624 116.189L135.965 121.048L135.988 111.348L144.647 106.487Z" fill="#719F2C"/>
<path d="M135.987 111.348L135.964 121.048L127.25 116.191L127.274 106.489L135.987 111.348Z" fill="#577A2A"/>
<path d="M144.646 106.488L135.987 111.348L127.273 106.489L135.933 101.63L144.646 106.488" fill="#8DC025"/>
<path d="M134.665 123.859L131.367 122.257V118.552H132.276V121.717L135.073 123.074L134.665 123.859Z" fill="#331D14"/>
<path d="M135.933 122.735L135.475 121.977L139.424 119.751V116.567H140.334V120.254L135.933 122.735Z" fill="#331D14"/>
<path d="M135.196 115.126L135.184 119.456L130.418 122.129L130.431 117.799L135.196 115.126Z" fill="#719F2C"/>
<path d="M130.431 117.799L130.418 122.129L125.623 119.456L125.636 115.126L130.431 117.799Z" fill="#577A2A"/>
<path d="M135.198 115.125L130.432 117.799L125.637 115.125L130.403 112.452L135.198 115.125Z" fill="#8DC025"/>
<path d="M143.862 114.819L143.853 117.772L140.602 119.598L140.61 116.644L143.862 114.819Z" fill="#719F2C"/>
<path d="M140.611 116.643L140.602 119.597L137.33 117.773L137.339 114.818L140.611 116.643Z" fill="#577A2A"/>
<path d="M143.865 114.818L140.614 116.644L137.342 114.818L140.594 112.995L143.865 114.818Z" fill="#8DC025"/>
<path d="M128.729 38.9961L127.801 38.4758L127.791 34.9562L128.719 35.4779L128.729 38.9961Z" fill="#543878"/>
<path d="M130.75 32.0845L129.822 31.5642L132.994 29.7958L133.921 30.3175L130.75 32.0845Z" fill="#4A578B"/>
<path d="M125.547 37.2441L124.62 36.7239L124.613 34.468L125.541 34.9882L125.547 37.2441Z" fill="#543878"/>
<path d="M125.541 34.9888L124.613 34.4685L127.784 32.7001L128.711 33.2204L125.541 34.9888Z" fill="#4A578B"/>
<path d="M128.711 33.2202L127.784 32.6999L127.773 29.1817L128.702 29.702L128.711 33.2202Z" fill="#543878"/>
<path d="M128.704 29.7026L127.775 29.1823L129.812 28.0466L130.74 28.5669L128.704 29.7026Z" fill="#4A578B"/>
<path d="M130.739 28.5666L130.748 32.0848L133.92 30.3178L133.926 32.5738L130.755 34.3421L130.766 37.8603L128.729 38.9961L128.719 35.4779L125.547 37.2448L125.541 34.9889L128.712 33.2206L128.702 29.7023L130.739 28.5666Z" fill="#7356BC"/>
<path d="M170.728 13.8564L169.801 13.3362L172.053 12.081L172.98 12.6012L170.728 13.8564Z" fill="#543878"/>
<path d="M169.445 15.7676L168.518 15.2473L168.5 8.96284L169.427 9.48313L169.445 15.7676Z" fill="#543878"/>
<path d="M169.429 9.48242L168.502 8.96213L169.787 8.2443L170.714 8.76598L169.429 9.48242Z" fill="#543878"/>
<path d="M170.715 8.76571L170.73 13.8561L172.982 12.6009L172.986 13.7935L169.447 15.7666L169.43 9.48215L170.715 8.76571Z" fill="#7356BC"/>
<path d="M167.312 16.957L166.385 16.4368L165.943 15.0679L166.871 15.5881L167.312 16.957Z" fill="#543878"/>
<path d="M165.431 15.3257L164.504 14.8054L165.755 14.1075L166.684 14.6277L165.431 15.3257Z" fill="#543878"/>
<path d="M166.682 14.627L165.753 14.1067L165.396 12.9709L166.324 13.4912L166.682 14.627Z" fill="#543878"/>
<path d="M166.038 12.4379L165.109 11.9176C165.195 12.2431 165.298 12.654 165.399 12.971L166.327 13.4912C166.225 13.1742 166.122 12.7648 166.038 12.4379Z" fill="#543878"/>
<path d="M165.236 11.8213L164.309 11.2996L165.99 10.3628L166.917 10.8831L165.236 11.8213" fill="#543878"/>
<path d="M163.523 19.0708L162.594 18.5505L164.307 11.2995L165.235 11.8212L163.523 19.0708Z" fill="#543878"/>
<path d="M165.431 15.3246L165.764 13.8051C165.855 13.39 165.938 12.8669 166.02 12.4475L166.038 12.4376C166.122 12.7645 166.225 13.1739 166.326 13.4909L166.684 14.6267L165.431 15.3246ZM166.917 10.8825L165.235 11.8192L163.523 19.0703L164.851 18.3297L165.249 16.4917L166.871 15.5876L167.313 16.9565L168.692 16.1889L166.917 10.8825" fill="#7356BC"/>
<path d="M161.026 20.4624L160.099 19.9421L160.084 14.8503L161.011 15.3706L161.026 20.4624Z" fill="#543878"/>
<path d="M159.49 16.2192L158.563 15.6976L158.559 14.5049L159.487 15.0252L159.49 16.2192Z" fill="#543878"/>
<path d="M163.841 12.5991L163.845 13.7918L162.298 14.6546L162.314 19.7464L161.028 20.4629L161.013 15.3711L159.492 16.2197L159.488 15.0257L163.841 12.5991" fill="#7356BC"/>
<path d="M159.487 15.0249L158.559 14.5046L162.912 12.0767L163.839 12.5984L159.487 15.0249" fill="#543878"/>
<path d="M157.54 22.4067L156.612 21.8851L156.594 15.6006L157.521 16.1209L157.54 22.4067" fill="#543878"/>
<path d="M157.519 16.1216L156.592 15.6013L157.878 14.8849L158.805 15.4051L157.519 16.1216Z" fill="#543878"/>
<path d="M158.807 15.4049L158.826 21.6894L157.54 22.4072L157.521 16.1214L158.807 15.4049" fill="#7356BC"/>
<path d="M153.417 20.3516C153.233 20.4539 153.098 20.5193 152.988 20.552L153.916 21.0737C154.026 21.041 154.16 20.9742 154.345 20.8719L153.417 20.3516Z" fill="#543878"/>
<path d="M155.223 20.0306L155.313 19.8159L155.372 19.6766C155.415 19.5316 155.442 19.3823 155.442 19.2331C155.441 18.9715 155.367 18.7995 155.227 18.7214L154.3 18.2011C154.439 18.2792 154.513 18.4513 154.514 18.7114C154.514 18.8621 154.487 19.0113 154.444 19.1563L154.387 19.2928L154.254 19.5629L154.024 19.8557L153.901 19.995C153.759 20.1272 153.599 20.2495 153.416 20.3518L154.343 20.8721C154.527 20.7697 154.687 20.6475 154.829 20.5153L154.95 20.3788L155.182 20.0831L155.223 20.0306" fill="#543878"/>
<path d="M155.059 17.5072L155.366 17.3977L155.523 17.3679L155.753 17.3323L155.89 17.3423L156.102 17.3707L155.174 16.849L155.113 16.832L154.962 16.8206L154.826 16.812L154.593 16.8476L154.439 16.876L154.129 16.9869L153.979 17.0423C153.813 17.1148 153.634 17.2029 153.442 17.311C152.66 17.7474 152.106 18.1127 151.711 18.407L152.638 18.9272C153.033 18.633 153.588 18.2677 154.37 17.8313C154.562 17.7247 154.74 17.6351 154.906 17.5626L155.059 17.5072" fill="#543878"/>
<path d="M152.638 18.9269L151.711 18.4066L151.729 24.6072L152.657 25.1274L152.638 18.9269Z" fill="#543878"/>
<path d="M154.345 20.8715C154.16 20.9738 154.026 21.0407 153.916 21.0734L153.911 19.2169C154.003 19.1387 154.18 19.0108 154.44 18.8672C155.079 18.5104 155.441 18.6539 155.443 19.2325C155.445 19.875 155.025 20.4919 154.345 20.8715V20.8715ZM156.103 17.3703C155.723 17.2452 155.16 17.3917 154.37 17.8309C153.588 18.2673 153.034 18.6326 152.639 18.9269L152.657 25.1274L153.926 24.421L153.919 22.1736C154.037 22.1267 154.188 22.0513 154.357 21.9575C155.113 21.5353 155.759 20.9696 156.195 20.2702C156.53 19.7272 156.713 19.1031 156.712 18.4876C156.71 17.8721 156.465 17.4855 156.103 17.3703Z" fill="#7356BC"/>
<path d="M147.228 25.6509L146.971 26.97L147.899 27.4917L148.156 26.1711L147.228 25.6509" fill="#543878"/>
<path d="M150.338 25.0724L150.353 25.0184C150.426 24.8749 150.476 24.7313 150.475 24.5891C150.474 24.4214 150.425 24.3119 150.315 24.2508L149.387 23.7291C149.498 23.7917 149.547 23.9011 149.548 24.0689C149.548 24.2096 149.498 24.3546 149.426 24.4981L149.365 24.6076L149.176 24.8408L149.075 24.9474C148.954 25.054 148.816 25.1577 148.65 25.2501C148.104 25.5543 147.574 25.6538 147.229 25.651L148.157 26.1713C148.502 26.1755 149.032 26.076 149.578 25.7718C149.744 25.678 149.882 25.5757 150.003 25.4676L150.104 25.361L150.293 25.1279L150.338 25.0724" fill="#543878"/>
<path d="M151.355 22.7998L150.427 22.2795L150.184 22.1857H150.097C149.895 22.1487 149.668 22.1388 149.381 22.1814C149.173 22.2099 149.008 22.2255 148.864 22.2312L148.747 22.2255L148.469 22.1786L149.396 22.6989L149.497 22.7373L149.675 22.7458L149.792 22.7515C149.935 22.7458 150.102 22.7302 150.309 22.7017C150.595 22.6591 150.822 22.669 151.024 22.706L151.355 22.7998" fill="#543878"/>
<path d="M150.618 19.146C150.281 19.1659 149.81 19.2796 149.172 19.635L150.099 20.1553C150.738 19.7999 151.209 19.6862 151.546 19.6663L150.618 19.146Z" fill="#543878"/>
<path d="M148.098 22.4709L148.205 22.2207C148.285 22.0288 148.372 21.8369 148.493 21.6492L148.582 21.517C148.747 21.2811 148.941 21.055 149.166 20.8432L149.279 20.7466C149.526 20.5291 149.795 20.3258 150.101 20.1552L149.173 19.635C148.867 19.8055 148.598 20.0088 148.351 20.2263L148.239 20.323C148.013 20.5334 147.82 20.7594 147.655 20.9953L147.565 21.1304L147.445 21.3095C147.372 21.4374 147.332 21.5682 147.278 21.699L147.17 21.9506C147.087 22.2121 147.035 22.4737 147.035 22.7225C147.037 23.1802 147.192 23.4688 147.464 23.6209L148.392 24.1411C148.119 23.989 147.964 23.7004 147.963 23.2441C147.962 22.994 148.015 22.7324 148.098 22.4709Z" fill="#543878"/>
<path d="M150.31 22.7015C149.578 22.801 149.259 22.8025 149.257 22.4016C149.256 22.0746 149.524 21.6454 150.079 21.3355C150.634 21.027 151.038 20.9787 151.265 20.9744L151.547 19.6666C151.211 19.6865 150.74 19.8002 150.101 20.1556C148.765 20.9005 147.96 22.1713 147.964 23.2445C147.966 24.1586 148.581 24.3931 149.524 24.2325C150.205 24.123 150.475 24.197 150.476 24.5893C150.477 25.0001 150.167 25.4436 149.579 25.772C149.033 26.0762 148.502 26.1757 148.157 26.1714L147.9 27.492C148.22 27.5091 148.86 27.3399 149.506 26.9788C151.061 26.1117 151.79 24.8096 151.787 23.7563C151.784 22.8693 151.312 22.5537 150.31 22.7015" fill="#7356BC"/>
<path d="M145.478 27.581C145.573 27.3962 145.644 27.1972 145.708 26.9882L145.799 26.7011C145.871 26.3841 145.915 26.0557 145.915 25.7203C145.912 25.0294 145.728 24.4992 145.382 24.3059L144.455 23.7856C144.8 23.9789 144.985 24.5091 144.986 25.2C144.988 25.534 144.943 25.8638 144.872 26.1808L144.78 26.468C144.717 26.6755 144.645 26.8759 144.551 27.0593C144.477 27.2029 144.394 27.3351 144.303 27.4587L144.165 27.6464C144.007 27.8255 143.831 27.9819 143.632 28.0942C143.473 28.1823 143.329 28.2249 143.195 28.2434H143.078L142.766 28.1809L143.693 28.7026L143.849 28.7637H144.006H144.123C144.257 28.7452 144.4 28.7025 144.559 28.6144C144.759 28.5021 144.934 28.3458 145.093 28.1666L145.231 27.9776L145.428 27.7089L145.478 27.581" fill="#543878"/>
<path d="M145.538 22.4783L145.238 22.3603C144.819 22.2593 144.284 22.3603 143.643 22.7185L144.571 23.2388C145.211 22.882 145.746 22.7796 146.166 22.882L146.465 22.9985L145.538 22.4783" fill="#543878"/>
<path d="M145.537 22.4782C145.085 22.2251 144.447 22.2692 143.641 22.7184C143.434 22.8335 143.235 22.9672 143.047 23.1136L142.87 23.2728L142.513 23.5955L142.323 23.8186L142.045 24.1484L141.872 24.4143L141.658 24.7426L141.65 24.7597L141.465 25.1364L141.327 25.4235C141.271 25.5586 141.23 25.6979 141.186 25.8372L141.089 26.1201C141.048 26.2722 141.023 26.4257 140.995 26.5792L140.943 26.8322C140.911 27.071 140.894 27.3098 140.895 27.5472C140.897 28.5053 141.181 29.1962 141.702 29.489L142.631 30.0093C142.11 29.7164 141.825 29.0256 141.823 28.0675C141.822 27.8301 141.839 27.5913 141.872 27.3525L141.917 27.1279C141.946 26.9644 141.973 26.801 142.017 26.6403L142.114 26.3546C142.159 26.2167 142.199 26.0788 142.254 25.9452L142.394 25.6538L142.577 25.2799L142.806 24.9231L142.972 24.6687L143.263 24.3247L143.44 24.1157L143.815 23.7774L143.974 23.6338C144.163 23.4874 144.361 23.3553 144.57 23.2387C145.375 22.7895 146.012 22.7454 146.464 22.9984L145.537 22.4782" fill="#543878"/>
<path d="M144.561 28.6151C143.704 29.0927 143.181 28.5156 143.177 27.286C143.173 26.0635 143.675 24.8694 144.541 24.3861C145.423 23.8943 145.913 24.5923 145.917 25.7209C145.92 26.942 145.427 28.1318 144.561 28.6151V28.6151ZM144.571 23.239C142.898 24.1715 141.819 26.1843 141.824 28.0678C141.829 29.8575 142.817 30.7175 144.498 29.7807C146.153 28.8582 147.275 26.9804 147.269 24.9192C147.265 23.185 146.311 22.2695 144.571 23.239Z" fill="#7356BC"/>
<path d="M139.697 32.3535L138.77 31.8333L138.762 29.2035L139.69 29.7237L139.697 32.3535Z" fill="#543878"/>
<path d="M137.578 29.6602L136.65 29.1399L138.76 27.9629L139.688 28.4846L137.578 29.6602" fill="#543878"/>
<path d="M139.687 28.4839L138.759 27.9622L138.752 25.5471L139.679 26.0688L139.687 28.4839Z" fill="#543878"/>
<path d="M139.679 26.0693L138.752 25.5477L140.029 24.8355L140.957 25.3557L139.679 26.0693" fill="#543878"/>
<path d="M136.284 27.9609L135.355 27.4406L136.642 26.7242L137.569 27.2445L136.284 27.9609Z" fill="#543878"/>
<path d="M136.302 34.2471L135.374 33.7254L135.355 27.4409L136.284 27.9612L136.302 34.2471" fill="#543878"/>
<path d="M140.958 25.3551L140.976 31.641L139.698 32.3531L139.691 29.7234L137.581 30.8989L137.589 33.5287L136.304 34.2466L136.285 27.9607L137.571 27.2443L137.578 29.6594L139.688 28.4838L139.68 26.0687L140.958 25.3551" fill="#7356BC"/>
</svg>
