<svg width="154" height="180" viewBox="0 0 154 180" fill="none" xmlns="http://www.w3.org/2000/svg">
<path d="M34.2486 159.322C14.4312 143.556 3.10994 123.433 0.535981 98.9246C-2.22632 72.6173 5.69435 49.5073 24.162 29.8542C41.5519 11.3302 63.3783 1.48875 89.4632 0.139911C112.42 -1.03907 132.865 5.2555 151.301 18.1743C154.042 20.0927 154.44 21.9611 153.394 24.8686C149.051 37.048 141.277 46.7497 130.688 54.5829C127.644 56.831 125.269 56.5812 122.402 54.3031C114.477 48.0383 104.434 44.7455 94.1508 45.0411C71.027 45.4408 52.4128 59.9083 48.1124 81.6195C44.8897 97.7856 50.3306 111.594 62.4471 123.034C47.5474 131.237 38.2142 143.366 34.2486 159.322Z" fill="#B6B6FE"/>
<path d="M34.2498 159.323C38.2153 143.337 47.5799 131.237 62.5006 123.034C81.9099 138.221 103.642 138.831 123.847 124.623C125.939 123.134 127.572 123.244 129.57 124.623C140.973 132.208 149.433 143.177 153.636 155.826C154.494 158.344 153.824 159.822 151.763 161.351C132.552 175.169 110.956 181.434 86.9741 179.725C67.5607 178.508 49.0736 171.355 34.2498 159.323Z" fill="#5909D6"/>
<path d="M94.0958 118.198C88.2459 118.174 82.5345 116.496 77.6829 113.375C72.8312 110.254 69.0567 105.83 66.8362 100.662C64.6157 95.4936 64.0486 89.8131 65.2066 84.3375C66.3646 78.8619 69.1957 73.8367 73.3424 69.8965C77.4892 65.9563 82.7656 63.2777 88.5055 62.199C94.2454 61.1203 100.191 61.6899 105.592 63.8358C110.993 65.9817 115.608 69.6077 118.852 74.2559C122.097 78.9042 123.826 84.3662 123.822 89.9523C123.789 97.458 120.642 104.645 115.07 109.939C109.498 115.234 101.956 118.203 94.0958 118.198Z" fill="#5909D6"/>
</svg>
